<svg width="131" height="131" viewBox="0 0 131 131" fill="none" xmlns="http://www.w3.org/2000/svg">
<path d="M65.5 131C101.675 131 131 101.675 131 65.5C131 29.3253 101.675 0 65.5 0C29.3253 0 0 29.3253 0 65.5C0 101.675 29.3253 131 65.5 131Z" fill="#FFCA28"/>
<path d="M65.418 114.707C43.5165 114.707 24.0876 100.011 18.168 78.9768C17.5457 76.799 18.8148 74.5392 20.9927 73.9252C23.1624 73.3193 25.4303 74.5802 26.0444 76.758C30.9732 94.2875 47.1681 106.528 65.418 106.528C83.668 106.528 99.8547 94.2875 104.792 76.758C105.406 74.5802 107.633 73.3029 109.843 73.9252C112.021 74.5392 113.282 76.8072 112.676 78.9768C106.74 100.011 87.3114 114.707 65.418 114.707Z" fill="#6D4C41"/>
<path d="M102.262 53.3008C100.002 53.3008 98.1681 51.4668 98.1681 49.207C98.1681 44.6957 94.5001 41.0195 89.9806 41.0195C85.4611 41.0195 81.7931 44.6957 81.7931 49.207C81.7931 51.4668 79.9591 53.3008 77.6993 53.3008C75.4396 53.3008 73.6056 51.4668 73.6056 49.207C73.6056 40.1762 80.9498 32.832 89.9806 32.832C99.0114 32.832 106.356 40.1762 106.356 49.207C106.356 51.475 104.522 53.3008 102.262 53.3008Z" fill="#6D4C41"/>
<path d="M53.1368 53.3008C50.8771 53.3008 49.0431 51.4668 49.0431 49.207C49.0431 44.6957 45.3669 41.0195 40.8556 41.0195C36.3443 41.0195 32.6681 44.6957 32.6681 49.207C32.6681 51.4668 30.8341 53.3008 28.5743 53.3008C26.3146 53.3008 24.4806 51.4668 24.4806 49.207C24.4806 40.1762 31.8248 32.832 40.8556 32.832C49.8864 32.832 57.2306 40.1762 57.2306 49.207C57.2306 51.475 55.3966 53.3008 53.1368 53.3008Z" fill="#6D4C41"/>
</svg>
