<svg width="196" height="152" viewBox="0 0 196 152" fill="none" xmlns="http://www.w3.org/2000/svg">
<path d="M98.2217 144.853C97.0386 149.71 92.0292 152.663 87.0328 151.449C82.0365 150.236 78.9452 145.314 80.1282 140.458C81.3113 135.601 86.3207 132.647 91.3171 133.861C96.3135 135.075 99.4047 139.996 98.2217 144.853Z" fill="url(#paint0_linear)"/>
<path d="M159.964 22.7609C158.306 29.5696 151.283 33.7098 144.279 32.0083C137.275 30.3068 132.941 23.4079 134.6 16.5992C136.258 9.79053 143.281 5.65033 150.285 7.35183C157.289 9.05332 161.623 15.9522 159.964 22.7609Z" fill="url(#paint1_linear)"/>
<path d="M47.1444 30.2645C51.4564 25.8727 56.1887 2.92974 89.6775 0.170736C123.166 -2.58827 124.163 28.9379 134.121 33.5434C144.079 38.149 163.526 37.6597 181.281 55.3548C196.852 70.8746 202.325 98.5022 186.506 120.493C168.403 145.658 144.937 149.643 127.383 143.781C112.108 138.68 102.266 125.135 92.2366 124.104C70.6814 121.889 66.01 141.852 37.853 132.707C9.69602 123.562 -7.12971 82.8798 2.9381 61.8595C13.0059 40.8392 36.2601 41.3503 47.1444 30.2645Z" fill="url(#paint2_linear)"/>
<path d="M80.6075 32L76.6925 21.5H75.1175L71.2025 32H72.6875L73.5425 29.645H78.2675L79.1225 32H80.6075ZM75.8975 23.165L77.7875 28.34H74.0225L75.8975 23.165ZM84.3512 28.13L87.9362 24.5H86.2562L83.0162 27.815V24.5H81.7112V32H83.0162V28.445L86.4362 32H88.0562L84.3512 28.13ZM95.5698 24.5H94.2648V30.755H90.5748V24.5H89.2698V32H95.5098V34.01H96.7998V30.755H95.5698V24.5ZM99.4807 29.765V24.5H98.1907V32H99.2407L103.396 26.735V32H104.686V24.5H103.636L99.4807 29.765ZM109.087 24.5C108.352 24.5 107.737 24.725 107.242 25.19C106.747 25.655 106.507 26.225 106.507 26.915C106.507 28.04 107.272 28.94 108.397 29.225L106.207 32H107.797L109.897 29.3H110.992V32H112.282V24.5H109.087ZM109.132 28.13C108.397 28.13 107.797 27.65 107.797 26.93C107.797 26.195 108.397 25.715 109.132 25.715H110.992V28.13H109.132ZM115.595 28.925L115.88 24.5V21.5H114.305V24.5L114.59 28.925H115.595ZM115.085 32.165C115.64 32.165 116.06 31.73 116.06 31.19C116.06 30.65 115.64 30.215 115.085 30.215C114.545 30.215 114.11 30.65 114.11 31.19C114.11 31.73 114.545 32.165 115.085 32.165Z" fill="white"/>
<path d="M59.1051 61.308C61.9211 61.308 64.4071 59.9 65.7271 57.678L63.1091 56.16C62.3831 57.502 60.8651 58.338 59.1051 58.338C57.6091 58.338 56.3991 57.876 55.4751 56.93C54.5731 55.984 54.1111 54.774 54.1111 53.3C54.1111 51.804 54.5731 50.594 55.4751 49.648C56.3991 48.702 57.6091 48.24 59.1051 48.24C60.8651 48.24 62.3391 49.054 63.1091 50.44L65.7271 48.922C64.4071 46.7 61.8991 45.292 59.1051 45.292C56.7951 45.292 54.8811 46.062 53.3631 47.602C51.8451 49.12 51.0971 51.034 51.0971 53.3C51.0971 55.566 51.8451 57.458 53.3631 58.998C54.8811 60.538 56.7951 61.308 59.1051 61.308ZM73.7081 53.08L79.4061 45.6H75.9081L70.6281 52.398V45.6H67.5921V61H70.6281V53.784L76.1281 61H79.6261L73.7081 53.08ZM93.0733 61V45.6H90.7633L84.1633 55.016V45.6H81.1273V61H83.4373L90.0373 51.606V61H93.0733ZM107.766 45.6H97.602V52.882C97.602 55.17 97.184 56.908 96.326 58.096H94.83V63.948H97.866V61H106.38V63.948H109.416V58.096H107.766V45.6ZM99.582 58.096C100.286 56.886 100.638 55.148 100.638 52.926V48.438H104.73V58.096H99.582ZM117.558 53.08L123.256 45.6H119.758L114.478 52.398V45.6H111.442V61H114.478V53.784L119.978 61H123.476L117.558 53.08ZM138.564 61L133.152 45.6H129.39L124 61H127.278L128.202 58.228H134.34L135.264 61H138.564ZM131.282 49.098L133.394 55.39H129.17L131.282 49.098Z" fill="white"/>
<path d="M52.5729 99.1137V91.7977H30.4479V99.1137H52.5729ZM53.0196 79.7617H70.6606L57.0906 113.274H65.7046L79.6876 78.8767V71.9737H53.0196V79.7617ZM97.4567 114.1C102.649 114.1 106.72 112.153 109.611 108.259C112.502 104.306 113.977 99.1137 113.977 92.6237C113.977 86.1337 112.502 80.9417 109.611 77.0477C106.72 73.0947 102.649 71.1477 97.4567 71.1477C92.3237 71.1477 88.2527 73.0947 85.3027 77.0477C82.4117 80.9417 80.9367 86.1337 80.9367 92.6237C80.9367 99.1137 82.4117 104.306 85.3027 108.259C88.2527 112.153 92.3237 114.1 97.4567 114.1ZM105.894 92.6237C105.894 101.356 102.944 106.135 97.4567 106.135C91.9697 106.135 89.0787 101.415 89.0787 92.6237C89.0787 83.8327 91.9697 79.0537 97.4567 79.0537C102.944 79.0537 105.894 83.8327 105.894 92.6237ZM134.588 87.8447C136.476 85.9567 137.42 83.6557 137.42 80.8827C137.42 78.1097 136.476 75.8087 134.588 73.9797C132.7 72.0917 130.34 71.1477 127.508 71.1477C124.676 71.1477 122.316 72.0917 120.369 73.9797C118.481 75.8677 117.537 78.1687 117.537 80.8827C117.537 83.5967 118.481 85.8977 120.369 87.7857C122.316 89.6737 124.676 90.6177 127.508 90.6177C130.34 90.6177 132.7 89.6737 134.588 87.8447ZM125.266 109.085L152.229 79.1127L148.63 77.1067L121.726 107.02L125.266 109.085ZM124.794 83.5967C123.437 82.1217 123.437 79.6437 124.794 78.2277C126.21 76.8117 128.688 76.8117 130.104 78.2277C131.52 79.6437 131.52 82.1217 130.104 83.5967C128.688 85.0127 126.21 85.0127 124.794 83.5967ZM154.53 111.15C156.418 109.262 157.362 106.961 157.362 104.247C157.362 101.533 156.418 99.2317 154.53 97.3437C152.642 95.4557 150.282 94.5117 147.45 94.5117C144.618 94.5117 142.258 95.4557 140.37 97.3437C138.482 99.2317 137.538 101.533 137.538 104.247C137.538 106.961 138.482 109.262 140.37 111.15C142.258 113.038 144.618 113.982 147.45 113.982C150.282 113.982 152.642 113.038 154.53 111.15ZM151.108 104.247C151.108 106.312 149.574 108.023 147.45 108.023C145.326 108.023 143.792 106.371 143.792 104.247C143.792 102.123 145.326 100.471 147.45 100.471C149.574 100.471 151.108 102.123 151.108 104.247Z" fill="white"/>
<defs>
<linearGradient id="paint0_linear" x1="98" y1="0" x2="98" y2="151.722" gradientUnits="userSpaceOnUse">
<stop stop-color="#FF00B8"/>
<stop offset="1" stop-color="#550098"/>
</linearGradient>
<linearGradient id="paint1_linear" x1="98" y1="0" x2="98" y2="151.722" gradientUnits="userSpaceOnUse">
<stop stop-color="#FF00B8"/>
<stop offset="1" stop-color="#550098"/>
</linearGradient>
<linearGradient id="paint2_linear" x1="98" y1="0" x2="98" y2="151.722" gradientUnits="userSpaceOnUse">
<stop stop-color="#FF00B8"/>
<stop offset="1" stop-color="#550098"/>
</linearGradient>
</defs>
</svg>
