<svg width="94" height="94" viewBox="0 0 94 94" fill="none" xmlns="http://www.w3.org/2000/svg">
<circle cx="47" cy="47" r="47" fill="white"/>
<path d="M77.4014 21H71.7252C71.1831 21 70.7438 21.4393 70.7438 21.9814C70.7438 22.5236 71.1831 22.9629 71.7252 22.9629H77.4014C78.3034 22.9629 79.0371 23.6966 79.0371 24.5986V68.6354C79.0371 69.5374 78.3034 70.2712 77.4014 70.2712H25.0576C24.5155 70.2712 24.0762 70.7105 24.0762 71.2526C24.0762 71.7948 24.5155 72.2341 25.0576 72.2341H77.4014C79.3857 72.2341 81 70.6197 81 68.6354V24.5986C81 22.6144 79.3857 21 77.4014 21Z" fill="#04DA21"/>
<path d="M26.4775 70.2712H17.5986C16.6966 70.2712 15.9629 69.5374 15.9629 68.6354V24.5986C15.9629 23.6896 16.7012 22.9629 17.5986 22.9629H72.1451C72.6873 22.9629 73.1266 22.5236 73.1266 21.9814C73.1266 21.4393 72.6873 21 72.1451 21H17.5986C15.6204 21 14 22.6042 14 24.5986V68.6354C14 70.6197 15.6143 72.2341 17.5986 72.2341H26.4775C27.0197 72.2341 27.459 71.7948 27.459 71.2526C27.459 70.7105 27.0197 70.2712 26.4775 70.2712Z" fill="#04DA21"/>
<path d="M63.7983 52.6462V51.2137C69.3182 50.742 73.7301 46.3299 74.202 40.8099H75.6345C76.1766 40.8099 76.6159 40.3706 76.6159 39.8284C76.6159 39.2863 76.1766 38.847 75.6345 38.847H74.202C73.7302 33.3271 69.3182 28.9151 63.7983 28.4433V27.0107C63.7983 26.4686 63.359 26.0293 62.8168 26.0293C62.2747 26.0293 61.8354 26.4686 61.8354 27.0107V28.4433C56.3155 28.915 51.9034 33.3271 51.4315 38.847H49.9993C49.4571 38.847 49.0178 39.2863 49.0178 39.8284C49.0178 40.3706 49.4571 40.8099 49.9993 40.8099H51.4317C51.9034 46.3298 56.3155 50.7418 61.8355 51.2137V52.6462C61.8355 53.1884 62.2748 53.6277 62.8169 53.6277C63.3591 53.6277 63.7983 53.1884 63.7983 52.6462ZM63.7983 49.2426V45.9566C66.4357 45.5356 68.5237 43.4476 68.9447 40.81H72.2307C71.7715 45.2469 68.2349 48.7834 63.7983 49.2426ZM63.7983 30.4147C68.235 30.8738 71.7715 34.4104 72.2307 38.8471H68.9447C68.5237 36.2096 66.4357 34.1216 63.7983 33.7007V30.4147ZM61.8354 30.4147V33.7007C59.1979 34.1216 57.1098 36.2096 56.6888 38.8471H53.4028C53.862 34.4103 57.3984 30.8738 61.8354 30.4147ZM61.8354 49.2426C57.3984 48.7834 53.862 45.2468 53.4028 40.81H56.6888C57.1098 43.4475 59.1978 45.5356 61.8354 45.9566V49.2426ZM61.8354 42.035V43.9561C60.2826 43.5868 59.0584 42.3626 58.6891 40.8099H60.6103C61.1524 40.8099 61.5917 40.3706 61.5917 39.8284C61.5917 39.2863 61.1524 38.847 60.6103 38.847H58.6891C59.0584 37.2943 60.2826 36.0701 61.8354 35.7009V37.622C61.8354 38.1641 62.2747 38.6034 62.8168 38.6034C63.359 38.6034 63.7983 38.1641 63.7983 37.622V35.7009C65.3509 36.0701 66.5751 37.2942 66.9444 38.847H65.0234C64.4812 38.847 64.0419 39.2863 64.0419 39.8284C64.0419 40.3706 64.4812 40.8099 65.0234 40.8099H66.9444C66.5751 42.3626 65.3509 43.5868 63.7983 43.9561V42.035C63.7983 41.4928 63.359 41.0535 62.8168 41.0535C62.2747 41.0535 61.8354 41.4929 61.8354 42.035Z" fill="#04DA21"/>
<path d="M45.0006 40.8103C45.5427 40.8103 45.982 40.3711 45.982 39.8289C45.982 39.2868 45.5427 38.8475 45.0006 38.8475H43.5681C43.0963 33.3275 38.6842 28.9156 33.1643 28.4437V27.0112C33.1643 26.4691 32.725 26.0298 32.1829 26.0298C31.6407 26.0298 31.2014 26.4691 31.2014 27.0112V28.4437C25.6815 28.9155 21.2695 33.3275 20.7976 38.8475H19.3655C18.8233 38.8475 18.384 39.2868 18.384 39.8289C18.384 40.3711 18.8233 40.8103 19.3655 40.8103H20.7979C21.2696 46.3303 25.6817 50.7423 31.2017 51.2142V52.6467C31.2017 53.1889 31.641 53.6282 32.1832 53.6282C32.7253 53.6282 33.1646 53.1889 33.1646 52.6467V51.2142C38.6845 50.7424 43.0964 46.3304 43.5683 40.8103H45.0006ZM31.2016 30.415V33.701C28.5641 34.122 26.476 36.21 26.055 38.8475H22.769C23.2282 34.4107 26.7648 30.8742 31.2016 30.415ZM31.2016 49.2429C26.7647 48.7837 23.2282 45.2471 22.769 40.8103H26.055C26.476 43.4478 28.564 45.5359 31.2016 45.9569V49.2429ZM32.183 41.0539C31.6409 41.0539 31.2016 41.4932 31.2016 42.0353V43.9565C29.6488 43.5872 28.4246 42.363 28.0553 40.8102H29.9765C30.5186 40.8102 30.9579 40.3709 30.9579 39.8288C30.9579 39.2866 30.5186 38.8473 29.9765 38.8473H28.0553C28.4246 37.2947 29.6488 36.0705 31.2016 35.7012V37.6224C31.2016 38.1645 31.6409 38.6038 32.183 38.6038C32.7252 38.6038 33.1645 38.1645 33.1645 37.6224V35.7012C34.7171 36.0705 35.9413 37.2945 36.3106 38.8473H34.3896C33.8474 38.8473 33.4081 39.2866 33.4081 39.8288C33.4081 40.3709 33.8474 40.8102 34.3896 40.8102H36.3106C35.9413 42.363 34.7171 43.5872 33.1645 43.9565V42.0353C33.1645 41.4933 32.7252 41.0539 32.183 41.0539ZM33.1645 49.2429V45.9569C35.8019 45.5359 37.8899 43.448 38.3109 40.8103H41.5969C41.1377 45.2473 37.6013 48.7837 33.1645 49.2429ZM38.3109 38.8475C37.8899 36.21 35.8019 34.122 33.1645 33.701V30.415C37.6013 30.8742 41.1377 34.4108 41.5969 38.8475H38.3109Z" fill="#04DA21"/>
<path d="M47.4999 67.2044C49.9717 67.2044 51.9825 65.1936 51.9825 62.7218C51.9825 60.5873 50.4825 58.7976 48.4814 58.3488V57.6504C48.4814 57.1082 48.0421 56.6689 47.4999 56.6689C46.9578 56.6689 46.5185 57.1082 46.5185 57.6504V58.3488C44.5174 58.7976 43.0173 60.5873 43.0173 62.7218C43.0173 65.1936 45.0281 67.2044 47.4999 67.2044ZM48.4814 60.4013C49.3846 60.7847 50.0196 61.6805 50.0196 62.7218C50.0196 63.7632 49.3846 64.659 48.4814 65.0424V60.4013ZM46.5185 60.4013V65.0425C45.6153 64.6591 44.9802 63.7634 44.9802 62.722C44.9802 61.6806 45.6153 60.7847 46.5185 60.4013Z" fill="#04DA21"/>
<path d="M36.3717 56.6689C35.8296 56.6689 35.3903 57.1082 35.3903 57.6504V58.3488C33.3892 58.7976 31.8892 60.5873 31.8892 62.7218C31.8892 65.1936 33.8999 67.2044 36.3717 67.2044C38.8436 67.2044 40.8543 65.1936 40.8543 62.7218C40.8543 60.5873 39.3543 58.7976 37.3532 58.3488V57.6504C37.3532 57.1084 36.9139 56.6689 36.3717 56.6689ZM35.3903 65.0425C34.4871 64.6591 33.8521 63.7634 33.8521 62.722C33.8521 61.6806 34.4871 60.7849 35.3903 60.4014V65.0425ZM38.8914 62.7218C38.8914 63.7632 38.2564 64.659 37.3532 65.0424V60.4012C38.2564 60.7847 38.8914 61.6805 38.8914 62.7218Z" fill="#04DA21"/>
<path d="M58.6281 56.6689C58.0859 56.6689 57.6467 57.1082 57.6467 57.6504V58.3488C55.6455 58.7976 54.1455 60.5873 54.1455 62.7218C54.1455 65.1936 56.1563 67.2044 58.6281 67.2044C61.0999 67.2044 63.1107 65.1936 63.1107 62.7218C63.1107 60.5873 61.6106 58.7976 59.6095 58.3488V57.6504C59.6095 57.1084 59.1702 56.6689 58.6281 56.6689ZM57.6467 65.0425C56.7435 64.6591 56.1084 63.7634 56.1084 62.722C56.1084 61.6806 56.7435 60.7849 57.6467 60.4014V65.0425ZM61.1478 62.7218C61.1478 63.7632 60.5127 64.659 59.6095 65.0424V60.4012C60.5127 60.7847 61.1478 61.6805 61.1478 62.7218Z" fill="#04DA21"/>
</svg>
