<svg width="94" height="94" viewBox="0 0 94 94" fill="none" xmlns="http://www.w3.org/2000/svg">
<circle cx="47" cy="47" r="47" fill="white"/>
<path d="M76.9833 16H18.0167C17.747 16 17.4884 16.1071 17.2978 16.2978C17.1071 16.4884 17 16.747 17 17.0167V74.9667C17 75.2363 17.1071 75.4949 17.2978 75.6856C17.4884 75.8762 17.747 75.9833 18.0167 75.9833H28.1833V78.0167C28.1833 78.2863 28.2904 78.5449 28.4811 78.7356C28.6718 78.9262 28.9304 79.0333 29.2 79.0333H37.3333C37.603 79.0333 37.8616 78.9262 38.0522 78.7356C38.2429 78.5449 38.35 78.2863 38.35 78.0167V75.9833H42.4167V78.0167C42.4167 78.2863 42.5238 78.5449 42.7144 78.7356C42.9051 78.9262 43.1637 79.0333 43.4333 79.0333H51.5667C51.8363 79.0333 52.0949 78.9262 52.2856 78.7356C52.4762 78.5449 52.5833 78.2863 52.5833 78.0167V75.9833H56.65V78.0167C56.65 78.2863 56.7571 78.5449 56.9478 78.7356C57.1384 78.9262 57.397 79.0333 57.6667 79.0333H65.8C66.0696 79.0333 66.3282 78.9262 66.5189 78.7356C66.7096 78.5449 66.8167 78.2863 66.8167 78.0167V75.9833H76.9833C77.253 75.9833 77.5116 75.8762 77.7022 75.6856C77.8929 75.4949 78 75.2363 78 74.9667V17.0167C78 16.747 77.8929 16.4884 77.7022 16.2978C77.5116 16.1071 77.253 16 76.9833 16ZM36.3167 77H30.2167V75.9833H36.3167V77ZM50.55 77H44.45V75.9833H50.55V77ZM64.7833 77H58.6833V75.9833H64.7833V77ZM75.9667 73.95H19.0333V18.0333H75.9667V73.95Z" fill="#04DA21"/>
<path d="M21.0667 33.2831H22.1352C22.3759 35.8845 23.5188 38.3198 25.3661 40.167C27.2134 42.0143 29.6487 43.1573 32.25 43.398V44.4665C32.25 44.7361 32.3572 44.9947 32.5478 45.1854C32.7385 45.376 32.9971 45.4831 33.2667 45.4831C33.5364 45.4831 33.7949 45.376 33.9856 45.1854C34.1763 44.9947 34.2834 44.7361 34.2834 44.4665V43.398C36.8847 43.1573 39.32 42.0143 41.1673 40.167C43.0146 38.3198 44.1575 35.8845 44.3982 33.2831H45.4667C45.7364 33.2831 45.9949 33.176 46.1856 32.9854C46.3763 32.7947 46.4834 32.5361 46.4834 32.2665C46.4834 31.9968 46.3763 31.7382 46.1856 31.5476C45.9949 31.3569 45.7364 31.2498 45.4667 31.2498H44.3982C44.1575 28.6484 43.0146 26.2132 41.1673 24.3659C39.32 22.5186 36.8847 21.3756 34.2834 21.135V20.0665C34.2834 19.7968 34.1763 19.5382 33.9856 19.3476C33.7949 19.1569 33.5364 19.0498 33.2667 19.0498C32.9971 19.0498 32.7385 19.1569 32.5478 19.3476C32.3572 19.5382 32.25 19.7968 32.25 20.0665V21.135C29.6487 21.3756 27.2134 22.5186 25.3661 24.3659C23.5188 26.2132 22.3759 28.6484 22.1352 31.2498H21.0667C20.7971 31.2498 20.5385 31.3569 20.3478 31.5476C20.1572 31.7382 20.05 31.9968 20.05 32.2665C20.05 32.5361 20.1572 32.7947 20.3478 32.9854C20.5385 33.176 20.7971 33.2831 21.0667 33.2831ZM32.25 23.1765V24.1331C32.25 24.4028 32.3572 24.6614 32.5478 24.852C32.7385 25.0427 32.9971 25.1498 33.2667 25.1498C33.5364 25.1498 33.7949 25.0427 33.9856 24.852C34.1763 24.6614 34.2834 24.4028 34.2834 24.1331V23.1765C36.3442 23.4096 38.265 24.3351 39.7315 25.8016C41.1981 27.2682 42.1236 29.1889 42.3567 31.2498H41.4C41.1304 31.2498 40.8718 31.3569 40.6812 31.5476C40.4905 31.7382 40.3834 31.9968 40.3834 32.2665C40.3834 32.5361 40.4905 32.7947 40.6812 32.9854C40.8718 33.176 41.1304 33.2831 41.4 33.2831H42.3567C42.1236 35.344 41.1981 37.2648 39.7315 38.7313C38.265 40.1978 36.3442 41.1234 34.2834 41.3565V40.3998C34.2834 40.1302 34.1763 39.8716 33.9856 39.6809C33.7949 39.4902 33.5364 39.3831 33.2667 39.3831C32.9971 39.3831 32.7385 39.4902 32.5478 39.6809C32.3572 39.8716 32.25 40.1302 32.25 40.3998V41.3565C30.1892 41.1234 28.2684 40.1978 26.8019 38.7313C25.3353 37.2648 24.4098 35.344 24.1767 33.2831H25.1334C25.403 33.2831 25.6616 33.176 25.8523 32.9854C26.0429 32.7947 26.15 32.5361 26.15 32.2665C26.15 31.9968 26.0429 31.7382 25.8523 31.5476C25.6616 31.3569 25.403 31.2498 25.1334 31.2498H24.1767C24.4098 29.1889 25.3353 27.2682 26.8019 25.8016C28.2684 24.3351 30.1892 23.4096 32.25 23.1765Z" fill="#04DA21"/>
<path d="M33.2667 38.3665C34.4732 38.3665 35.6526 38.0087 36.6557 37.3385C37.6589 36.6682 38.4407 35.7155 38.9024 34.6009C39.3641 33.4862 39.4849 32.2597 39.2495 31.0765C39.0142 29.8932 38.4332 28.8063 37.5801 27.9532C36.727 27.1001 35.6401 26.5191 34.4568 26.2837C33.2735 26.0483 32.047 26.1691 30.9324 26.6308C29.8177 27.0925 28.8651 27.8744 28.1948 28.8775C27.5245 29.8807 27.1667 31.06 27.1667 32.2665C27.1684 33.8838 27.8116 35.4345 28.9552 36.5781C30.0988 37.7217 31.6494 38.3649 33.2667 38.3665ZM33.2667 28.1998C34.0711 28.1998 34.8573 28.4383 35.5261 28.8852C36.1948 29.332 36.7161 29.9672 37.0239 30.7103C37.3317 31.4533 37.4122 32.271 37.2553 33.0599C37.0984 33.8487 36.711 34.5733 36.1423 35.1421C35.5736 35.7108 34.849 36.0981 34.0601 36.255C33.2713 36.4119 32.4536 36.3314 31.7105 36.0236C30.9674 35.7158 30.3323 35.1946 29.8854 34.5258C29.4386 33.8571 29.2001 33.0708 29.2001 32.2665C29.2001 31.188 29.6285 30.1536 30.3912 29.3909C31.1538 28.6283 32.1882 28.1998 33.2667 28.1998Z" fill="#04DA21"/>
<path d="M21.0667 60.7333H22.1352C22.3759 63.3347 23.5188 65.7699 25.3661 67.6172C27.2134 69.4645 29.6487 70.6075 32.25 70.8482V71.9167C32.25 72.1863 32.3572 72.4449 32.5478 72.6356C32.7385 72.8262 32.9971 72.9333 33.2667 72.9333C33.5364 72.9333 33.7949 72.8262 33.9856 72.6356C34.1763 72.4449 34.2834 72.1863 34.2834 71.9167V70.8482C36.8847 70.6075 39.32 69.4645 41.1673 67.6172C43.0146 65.7699 44.1575 63.3347 44.3982 60.7333H45.4667C45.7364 60.7333 45.9949 60.6262 46.1856 60.4356C46.3763 60.2449 46.4834 59.9863 46.4834 59.7167C46.4834 59.447 46.3763 59.1884 46.1856 58.9978C45.9949 58.8071 45.7364 58.7 45.4667 58.7H44.3982C44.1575 56.0986 43.0146 53.6634 41.1673 51.8161C39.32 49.9688 36.8847 48.8258 34.2834 48.5852V47.5167C34.2834 47.247 34.1763 46.9884 33.9856 46.7978C33.7949 46.6071 33.5364 46.5 33.2667 46.5C32.9971 46.5 32.7385 46.6071 32.5478 46.7978C32.3572 46.9884 32.25 47.247 32.25 47.5167V48.5852C29.6487 48.8258 27.2134 49.9688 25.3661 51.8161C23.5188 53.6634 22.3759 56.0986 22.1352 58.7H21.0667C20.7971 58.7 20.5385 58.8071 20.3478 58.9978C20.1572 59.1884 20.05 59.447 20.05 59.7167C20.05 59.9863 20.1572 60.2449 20.3478 60.4356C20.5385 60.6262 20.7971 60.7333 21.0667 60.7333ZM32.25 50.6266V51.5833C32.25 51.853 32.3572 52.1116 32.5478 52.3022C32.7385 52.4929 32.9971 52.6 33.2667 52.6C33.5364 52.6 33.7949 52.4929 33.9856 52.3022C34.1763 52.1116 34.2834 51.853 34.2834 51.5833V50.6266C36.3442 50.8598 38.265 51.7853 39.7315 53.2518C41.1981 54.7184 42.1236 56.6391 42.3567 58.7H41.4C41.1304 58.7 40.8718 58.8071 40.6812 58.9978C40.4905 59.1884 40.3834 59.447 40.3834 59.7167C40.3834 59.9863 40.4905 60.2449 40.6812 60.4356C40.8718 60.6262 41.1304 60.7333 41.4 60.7333H42.3567C42.1236 62.7942 41.1981 64.715 39.7315 66.1815C38.265 67.648 36.3442 68.5736 34.2834 68.8067V67.85C34.2834 67.5804 34.1763 67.3218 33.9856 67.1311C33.7949 66.9404 33.5364 66.8333 33.2667 66.8333C32.9971 66.8333 32.7385 66.9404 32.5478 67.1311C32.3572 67.3218 32.25 67.5804 32.25 67.85V68.8067C30.1892 68.5736 28.2684 67.648 26.8019 66.1815C25.3353 64.715 24.4098 62.7942 24.1767 60.7333H25.1334C25.403 60.7333 25.6616 60.6262 25.8523 60.4356C26.0429 60.2449 26.15 59.9863 26.15 59.7167C26.15 59.447 26.0429 59.1884 25.8523 58.9978C25.6616 58.8071 25.403 58.7 25.1334 58.7H24.1767C24.4098 56.6391 25.3353 54.7184 26.8019 53.2518C28.2684 51.7853 30.1892 50.8598 32.25 50.6266Z" fill="#04DA21"/>
<path d="M33.2667 65.8167C34.4732 65.8167 35.6526 65.4589 36.6557 64.7887C37.6589 64.1184 38.4407 63.1657 38.9024 62.0511C39.3641 60.9364 39.4849 59.7099 39.2495 58.5266C39.0142 57.3434 38.4332 56.2565 37.5801 55.4034C36.727 54.5502 35.6401 53.9693 34.4568 53.7339C33.2735 53.4985 32.047 53.6193 30.9324 54.081C29.8177 54.5427 28.8651 55.3246 28.1948 56.3277C27.5245 57.3309 27.1667 58.5102 27.1667 59.7167C27.1684 61.334 27.8116 62.8846 28.9552 64.0283C30.0988 65.1719 31.6494 65.8151 33.2667 65.8167ZM33.2667 55.65C34.0711 55.65 34.8573 55.8885 35.5261 56.3354C36.1948 56.7822 36.7161 57.4174 37.0239 58.1605C37.3317 58.9035 37.4122 59.7212 37.2553 60.5101C37.0984 61.2989 36.711 62.0235 36.1423 62.5923C35.5736 63.161 34.849 63.5483 34.0601 63.7052C33.2713 63.8621 32.4536 63.7816 31.7105 63.4738C30.9674 63.166 30.3323 62.6448 29.8854 61.976C29.4386 61.3073 29.2001 60.521 29.2001 59.7167C29.2001 58.6382 29.6285 57.6038 30.3912 56.8411C31.1538 56.0785 32.1882 55.65 33.2667 55.65Z" fill="#04DA21"/>
<path d="M49.5333 33.2831H50.6018C50.8424 35.8845 51.9854 38.3198 53.8327 40.167C55.68 42.0143 58.1152 43.1573 60.7166 43.398V44.4665C60.7166 44.7361 60.8237 44.9947 61.0144 45.1854C61.205 45.376 61.4636 45.4831 61.7333 45.4831C62.0029 45.4831 62.2615 45.376 62.4522 45.1854C62.6428 44.9947 62.7499 44.7361 62.7499 44.4665V43.398C65.3513 43.1573 67.7865 42.0143 69.6338 40.167C71.4811 38.3198 72.6241 35.8845 72.8648 33.2831H73.9333C74.2029 33.2831 74.4615 33.176 74.6522 32.9854C74.8428 32.7947 74.9499 32.5361 74.9499 32.2665C74.9499 31.9968 74.8428 31.7382 74.6522 31.5476C74.4615 31.3569 74.2029 31.2498 73.9333 31.2498H72.8648C72.6241 28.6484 71.4811 26.2132 69.6338 24.3659C67.7865 22.5186 65.3513 21.3756 62.7499 21.135V20.0665C62.7499 19.7968 62.6428 19.5382 62.4522 19.3476C62.2615 19.1569 62.0029 19.0498 61.7333 19.0498C61.4636 19.0498 61.205 19.1569 61.0144 19.3476C60.8237 19.5382 60.7166 19.7968 60.7166 20.0665V21.135C58.1152 21.3756 55.68 22.5186 53.8327 24.3659C51.9854 26.2132 50.8424 28.6484 50.6018 31.2498H49.5333C49.2636 31.2498 49.005 31.3569 48.8144 31.5476C48.6237 31.7382 48.5166 31.9968 48.5166 32.2665C48.5166 32.5361 48.6237 32.7947 48.8144 32.9854C49.005 33.176 49.2636 33.2831 49.5333 33.2831ZM60.7166 23.1765V24.1331C60.7166 24.4028 60.8237 24.6614 61.0144 24.852C61.205 25.0427 61.4636 25.1498 61.7333 25.1498C62.0029 25.1498 62.2615 25.0427 62.4522 24.852C62.6428 24.6614 62.7499 24.4028 62.7499 24.1331V23.1765C64.8108 23.4096 66.7316 24.3351 68.1981 25.8016C69.6646 27.2682 70.5902 29.1889 70.8233 31.2498H69.8666C69.597 31.2498 69.3384 31.3569 69.1477 31.5476C68.957 31.7382 68.8499 31.9968 68.8499 32.2665C68.8499 32.5361 68.957 32.7947 69.1477 32.9854C69.3384 33.176 69.597 33.2831 69.8666 33.2831H70.8233C70.5902 35.344 69.6646 37.2648 68.1981 38.7313C66.7316 40.1978 64.8108 41.1234 62.7499 41.3565V40.3998C62.7499 40.1302 62.6428 39.8716 62.4522 39.6809C62.2615 39.4902 62.0029 39.3831 61.7333 39.3831C61.4636 39.3831 61.205 39.4902 61.0144 39.6809C60.8237 39.8716 60.7166 40.1302 60.7166 40.3998V41.3565C58.6557 41.1234 56.735 40.1978 55.2684 38.7313C53.8019 37.2648 52.8764 35.344 52.6432 33.2831H53.5999C53.8696 33.2831 54.1282 33.176 54.3188 32.9854C54.5095 32.7947 54.6166 32.5361 54.6166 32.2665C54.6166 31.9968 54.5095 31.7382 54.3188 31.5476C54.1282 31.3569 53.8696 31.2498 53.5999 31.2498H52.6432C52.8764 29.1889 53.8019 27.2682 55.2684 25.8016C56.735 24.3351 58.6557 23.4096 60.7166 23.1765Z" fill="#04DA21"/>
<path d="M61.7333 38.3665C62.9398 38.3665 64.1191 38.0087 65.1223 37.3385C66.1254 36.6682 66.9073 35.7155 67.369 34.6009C67.8307 33.4862 67.9515 32.2597 67.7161 31.0765C67.4807 29.8932 66.8998 28.8063 66.0467 27.9532C65.1936 27.1001 64.1066 26.5191 62.9234 26.2837C61.7401 26.0483 60.5136 26.1691 59.3989 26.6308C58.2843 27.0925 57.3316 27.8744 56.6613 28.8775C55.9911 29.8807 55.6333 31.06 55.6333 32.2665C55.6349 33.8838 56.2781 35.4345 57.4217 36.5781C58.5654 37.7217 60.116 38.3649 61.7333 38.3665ZM61.7333 28.1998C62.5376 28.1998 63.3239 28.4383 63.9926 28.8852C64.6614 29.332 65.1826 29.9672 65.4904 30.7103C65.7982 31.4533 65.8787 32.271 65.7218 33.0599C65.5649 33.8487 65.1776 34.5733 64.6089 35.1421C64.0401 35.7108 63.3155 36.0981 62.5267 36.255C61.7378 36.4119 60.9201 36.3314 60.1771 36.0236C59.434 35.7158 58.7988 35.1946 58.352 34.5258C57.9051 33.8571 57.6666 33.0708 57.6666 32.2665C57.6666 31.188 58.0951 30.1536 58.8577 29.3909C59.6204 28.6283 60.6548 28.1998 61.7333 28.1998Z" fill="#04DA21"/>
<path d="M49.5333 60.7333H50.6018C50.8424 63.3347 51.9854 65.7699 53.8327 67.6172C55.68 69.4645 58.1152 70.6075 60.7166 70.8482V71.9167C60.7166 72.1863 60.8237 72.4449 61.0144 72.6356C61.205 72.8262 61.4636 72.9333 61.7333 72.9333C62.0029 72.9333 62.2615 72.8262 62.4522 72.6356C62.6428 72.4449 62.7499 72.1863 62.7499 71.9167V70.8482C65.3513 70.6075 67.7865 69.4645 69.6338 67.6172C71.4811 65.7699 72.6241 63.3347 72.8648 60.7333H73.9333C74.2029 60.7333 74.4615 60.6262 74.6522 60.4356C74.8428 60.2449 74.9499 59.9863 74.9499 59.7167C74.9499 59.447 74.8428 59.1884 74.6522 58.9978C74.4615 58.8071 74.2029 58.7 73.9333 58.7H72.8648C72.6241 56.0986 71.4811 53.6634 69.6338 51.8161C67.7865 49.9688 65.3513 48.8258 62.7499 48.5852V47.5167C62.7499 47.247 62.6428 46.9884 62.4522 46.7978C62.2615 46.6071 62.0029 46.5 61.7333 46.5C61.4636 46.5 61.205 46.6071 61.0144 46.7978C60.8237 46.9884 60.7166 47.247 60.7166 47.5167V48.5852C58.1152 48.8258 55.68 49.9688 53.8327 51.8161C51.9854 53.6634 50.8424 56.0986 50.6018 58.7H49.5333C49.2636 58.7 49.005 58.8071 48.8144 58.9978C48.6237 59.1884 48.5166 59.447 48.5166 59.7167C48.5166 59.9863 48.6237 60.2449 48.8144 60.4356C49.005 60.6262 49.2636 60.7333 49.5333 60.7333ZM60.7166 50.6266V51.5833C60.7166 51.853 60.8237 52.1116 61.0144 52.3022C61.205 52.4929 61.4636 52.6 61.7333 52.6C62.0029 52.6 62.2615 52.4929 62.4522 52.3022C62.6428 52.1116 62.7499 51.853 62.7499 51.5833V50.6266C64.8108 50.8598 66.7316 51.7853 68.1981 53.2518C69.6646 54.7184 70.5902 56.6391 70.8233 58.7H69.8666C69.597 58.7 69.3384 58.8071 69.1477 58.9978C68.957 59.1884 68.8499 59.447 68.8499 59.7167C68.8499 59.9863 68.957 60.2449 69.1477 60.4356C69.3384 60.6262 69.597 60.7333 69.8666 60.7333H70.8233C70.5902 62.7942 69.6646 64.715 68.1981 66.1815C66.7316 67.648 64.8108 68.5736 62.7499 68.8067V67.85C62.7499 67.5804 62.6428 67.3218 62.4522 67.1311C62.2615 66.9404 62.0029 66.8333 61.7333 66.8333C61.4636 66.8333 61.205 66.9404 61.0144 67.1311C60.8237 67.3218 60.7166 67.5804 60.7166 67.85V68.8067C58.6557 68.5736 56.735 67.648 55.2684 66.1815C53.8019 64.715 52.8764 62.7942 52.6432 60.7333H53.5999C53.8696 60.7333 54.1282 60.6262 54.3188 60.4356C54.5095 60.2449 54.6166 59.9863 54.6166 59.7167C54.6166 59.447 54.5095 59.1884 54.3188 58.9978C54.1282 58.8071 53.8696 58.7 53.5999 58.7H52.6432C52.8764 56.6391 53.8019 54.7184 55.2684 53.2518C56.735 51.7853 58.6557 50.8598 60.7166 50.6266Z" fill="#04DA21"/>
<path d="M61.7333 65.8167C62.9398 65.8167 64.1191 65.4589 65.1223 64.7887C66.1254 64.1184 66.9073 63.1657 67.369 62.0511C67.8307 60.9364 67.9515 59.7099 67.7161 58.5266C67.4807 57.3434 66.8998 56.2565 66.0467 55.4034C65.1936 54.5502 64.1066 53.9693 62.9234 53.7339C61.7401 53.4985 60.5136 53.6193 59.3989 54.081C58.2843 54.5427 57.3316 55.3246 56.6613 56.3277C55.9911 57.3309 55.6333 58.5102 55.6333 59.7167C55.6349 61.334 56.2781 62.8846 57.4217 64.0283C58.5654 65.1719 60.116 65.8151 61.7333 65.8167ZM61.7333 55.65C62.5376 55.65 63.3239 55.8885 63.9926 56.3354C64.6614 56.7822 65.1826 57.4174 65.4904 58.1605C65.7982 58.9035 65.8787 59.7212 65.7218 60.5101C65.5649 61.2989 65.1776 62.0235 64.6089 62.5923C64.0401 63.161 63.3155 63.5483 62.5267 63.7052C61.7378 63.8621 60.9201 63.7816 60.1771 63.4738C59.434 63.166 58.7988 62.6448 58.352 61.976C57.9051 61.3073 57.6666 60.521 57.6666 59.7167C57.6666 58.6382 58.0951 57.6038 58.8577 56.8411C59.6204 56.0785 60.6548 55.65 61.7333 55.65Z" fill="#04DA21"/>
<path d="M69.8668 70.8999H65.8001C65.5305 70.8999 65.2719 71.007 65.0812 71.1977C64.8906 71.3883 64.7834 71.6469 64.7834 71.9166C64.7834 72.1862 64.8906 72.4448 65.0812 72.6355C65.2719 72.8261 65.5305 72.9332 65.8001 72.9332H69.8668C70.1364 72.9332 70.395 72.8261 70.5857 72.6355C70.7763 72.4448 70.8834 72.1862 70.8834 71.9166C70.8834 71.6469 70.7763 71.3883 70.5857 71.1977C70.395 71.007 70.1364 70.8999 69.8668 70.8999Z" fill="#04DA21"/>
<path d="M73.9332 70.8999H72.9166C72.6469 70.8999 72.3883 71.007 72.1977 71.1977C72.007 71.3883 71.8999 71.6469 71.8999 71.9166C71.8999 72.1862 72.007 72.4448 72.1977 72.6355C72.3883 72.8261 72.6469 72.9332 72.9166 72.9332H73.9332C74.2029 72.9332 74.4615 72.8261 74.6521 72.6355C74.8428 72.4448 74.9499 72.1862 74.9499 71.9166C74.9499 71.6469 74.8428 71.3883 74.6521 71.1977C74.4615 71.007 74.2029 70.8999 73.9332 70.8999Z" fill="#04DA21"/>
</svg>
