<svg width="94" height="94" viewBox="0 0 94 94" fill="none" xmlns="http://www.w3.org/2000/svg">
<circle cx="47" cy="47" r="47" fill="white"/>
<path d="M68.7614 17H26.2386C21.1445 17 17 21.1445 17 26.2386V68.7614C17 73.8555 21.1445 78 26.2386 78H68.7614C73.8555 78 78 73.8555 78 68.7614V26.2386C78 21.1445 73.8555 17 68.7614 17ZM75.722 68.7614C75.722 72.5995 72.5995 75.722 68.7614 75.722H26.2386C22.4005 75.722 19.278 72.5995 19.278 68.7614V26.2386C19.278 22.4005 22.4005 19.278 26.2386 19.278H68.7614C72.5995 19.278 75.722 22.4005 75.722 26.2386V68.7614ZM45.4751 34.3382C45.4751 34.9673 44.9652 35.4772 44.3361 35.4772C43.707 35.4772 43.1971 34.9673 43.1971 34.3382C43.1971 29.4534 39.223 25.4793 34.3382 25.4793C29.4534 25.4793 25.4793 29.4534 25.4793 34.3382C25.4793 42.0029 34.5753 45.9951 40.2305 40.9535C40.7 40.535 41.4201 40.5763 41.8386 41.0458C42.2573 41.5153 42.2159 42.2353 41.7464 42.6539C34.6365 48.992 23.2012 43.9757 23.2012 34.3382C23.2012 28.1973 28.1973 23.2012 34.3382 23.2012C40.4791 23.2012 45.4751 28.1973 45.4751 34.3382ZM30.1618 34.3382C30.1618 36.641 32.0354 38.5145 34.3382 38.5145C36.641 38.5145 38.5145 36.641 38.5145 34.3382C38.5145 32.0354 36.641 30.1618 34.3382 30.1618C32.0354 30.1618 30.1618 32.0354 30.1618 34.3382ZM36.2365 34.3382C36.2365 35.3849 35.3849 36.2365 34.3382 36.2365C33.2914 36.2365 32.4398 35.3849 32.4398 34.3382C32.4398 33.2914 33.2914 32.4398 34.3382 32.4398C35.3849 32.4398 36.2365 33.2914 36.2365 34.3382ZM56.9917 34.3382C56.9917 36.641 58.8652 38.5145 61.1681 38.5145C63.4709 38.5145 65.3444 36.641 65.3444 34.3382C65.3444 32.0354 63.4709 30.1618 61.1681 30.1618C58.8652 30.1618 56.9917 32.0354 56.9917 34.3382ZM63.0664 34.3382C63.0664 35.3849 62.2148 36.2365 61.1681 36.2365C60.1213 36.2365 59.2697 35.3849 59.2697 34.3382C59.2697 33.2914 60.1213 32.4398 61.1681 32.4398C62.2148 32.4398 63.0664 33.2914 63.0664 34.3382ZM69.6171 27.0822C75.7843 34.2574 70.6668 45.4751 61.1681 45.4751C55.0272 45.4751 50.0311 40.4791 50.0311 34.3382C50.0311 28.1973 55.0272 23.2012 61.1681 23.2012C61.7972 23.2012 62.3071 23.7111 62.3071 24.3402C62.3071 24.9694 61.7972 25.4793 61.1681 25.4793C56.2832 25.4793 52.3091 29.4534 52.3091 34.3382C52.3091 39.223 56.2832 43.1971 61.1681 43.1971C68.7443 43.1971 72.785 34.2626 67.8894 28.567C67.4794 28.0899 67.5337 27.3708 68.0108 26.9608C68.4878 26.5508 69.2069 26.6051 69.6171 27.0822ZM34.3382 56.9917C32.0354 56.9917 30.1618 58.8652 30.1618 61.1681C30.1618 63.4709 32.0354 65.3444 34.3382 65.3444C36.641 65.3444 38.5145 63.4709 38.5145 61.1681C38.5145 58.8652 36.641 56.9917 34.3382 56.9917ZM34.3382 63.0664C33.2914 63.0664 32.4398 62.2148 32.4398 61.1681C32.4398 60.1213 33.2914 59.2697 34.3382 59.2697C35.3849 59.2697 36.2365 60.1213 36.2365 61.1681C36.2365 62.2148 35.3849 63.0664 34.3382 63.0664ZM42.2133 69.043C41.7683 69.4878 41.0473 69.4878 40.6023 69.043C40.1575 68.5982 40.1575 67.877 40.6023 67.4322C46.1698 61.8649 42.1773 52.3091 34.3382 52.3091C29.4534 52.3091 25.4793 56.2832 25.4793 61.1681C25.4793 66.0529 29.4534 70.027 34.3382 70.027C34.9673 70.027 35.4772 70.5369 35.4772 71.166C35.4772 71.7951 34.9673 72.305 34.3382 72.305C28.1973 72.305 23.2012 67.3089 23.2012 61.1681C23.2012 55.0272 28.1973 50.0311 34.3382 50.0311C44.1982 50.0311 49.2098 62.0465 42.2133 69.043ZM57.8776 65.0913C56.5517 65.0913 55.473 66.1699 55.473 67.4959C55.473 68.8218 56.5517 69.9004 57.8776 69.9004C59.2035 69.9004 60.2822 68.8218 60.2822 67.4959C60.2822 66.1699 59.2035 65.0913 57.8776 65.0913ZM66.7365 65.0913C65.4106 65.0913 64.332 66.1699 64.332 67.4959C64.332 68.8218 65.4106 69.9004 66.7365 69.9004C68.0624 69.9004 69.1411 68.8218 69.1411 67.4959C69.1411 66.1699 68.0624 65.0913 66.7365 65.0913ZM66.7365 56.2324C65.4106 56.2324 64.332 57.311 64.332 58.6369C64.332 59.9629 65.4106 61.0415 66.7365 61.0415C68.0624 61.0415 69.1411 59.9629 69.1411 58.6369C69.1411 57.311 68.0624 56.2324 66.7365 56.2324Z" fill="#04DA21"/>
</svg>
