<svg width="94" height="94" viewBox="0 0 94 94" fill="none" xmlns="http://www.w3.org/2000/svg">
<circle cx="47" cy="47" r="47" fill="white"/>
<path d="M78 71.7628V23.2372C78 19.7979 75.2021 17 71.7628 17H23.2372C19.7979 17 17 19.7979 17 23.2372V71.7628C17 75.2021 19.7979 78 23.2372 78H71.7628C75.2021 78 78 75.2021 78 71.7628ZM18.7871 23.2372C18.7871 20.7832 20.7832 18.7871 23.2372 18.7871H71.7628C74.2168 18.7871 76.2129 20.7832 76.2129 23.2372V30.6653H18.7871V23.2372ZM70.2559 39.9029V70.2559H62.2176C66.2121 67.9452 68.9053 63.6259 68.9053 58.6885C68.9053 51.3255 62.9152 45.3355 55.5527 45.3355C52.502 45.3355 49.5556 46.3868 47.2021 48.2712V44.1389C47.2021 42.7404 46.0643 41.6025 44.6658 41.6025H31.2122C29.8137 41.6025 28.6758 42.7404 28.6758 44.1389V50.0317C28.6758 51.5154 29.0374 52.994 29.722 54.3068C29.95 54.7443 30.4894 54.9142 30.9274 54.6861C31.3648 54.4581 31.5347 53.9182 31.3066 53.4808C30.7468 52.4066 30.4629 51.2464 30.4629 50.0317V44.1389C30.4629 43.7257 30.7989 43.3896 31.2122 43.3896H44.6658C45.079 43.3896 45.415 43.7257 45.415 44.1389V50.0317C45.415 54.23 41.6952 57.6879 37.5355 57.4962C37.5317 57.4957 37.528 57.4957 37.5243 57.4952C35.9959 57.3998 34.5365 56.8623 33.3297 55.9157C32.9416 55.6109 32.3798 55.6788 32.075 56.067C31.7706 56.4551 31.8386 57.0168 32.2267 57.3217C33.138 58.0365 34.1507 58.5643 35.2285 58.8933V65.7104C34.8464 65.8849 34.3466 66.1632 33.8454 66.589C33.0523 67.2634 32.1369 68.4227 31.934 70.2559H24.7441V39.9029C24.7441 39.9029 27.2084 38.6594 27.2089 38.6594C28.7986 37.8571 30.7272 37.858 32.3166 38.6594C34.3927 39.7061 36.9365 39.7186 39.034 38.6594C40.6243 37.8557 42.551 37.8571 44.1413 38.6594C46.2351 39.7154 48.7649 39.7168 50.8583 38.6594C52.4285 37.8664 54.3748 37.8552 55.966 38.6594C58.0416 39.7075 60.5864 39.7186 62.6834 38.6594C64.2746 37.8557 66.2004 37.8566 67.7911 38.6594L70.2559 39.9029ZM37.939 59.2949C38.2508 59.2949 38.5584 59.2791 38.8623 59.2488V65.4307H37.0156V59.2484C37.0175 59.2484 37.0193 59.2484 37.0217 59.2488C37.159 59.2609 37.7705 59.2949 37.939 59.2949ZM36.2589 67.2178H39.6186C40.0621 67.3718 41.8003 68.1067 42.1415 70.2559H33.7365C34.0776 68.1067 35.8158 67.3718 36.2589 67.2178ZM43.9435 70.2559C43.6554 67.7032 41.9507 66.2875 40.6494 65.702V58.8896C41.1925 58.723 41.7138 58.5065 42.2094 58.2478C42.2048 58.3949 42.1996 58.5415 42.1996 58.6885C42.1996 63.6259 44.8929 67.9452 48.8873 70.2559H43.9435ZM45.6701 55.1287C46.5255 53.8261 47.0514 52.3038 47.1714 50.7494C47.1724 50.7377 47.1742 50.7266 47.1752 50.7154C49.3532 48.4285 52.389 47.1226 55.5527 47.1226C61.93 47.1226 67.1186 52.3112 67.1186 58.6885C67.1186 65.0663 61.93 70.2545 55.5527 70.2545C49.1749 70.2545 43.9867 65.0663 43.9867 58.6885C43.9867 58.1003 44.0314 57.5101 44.1199 56.9303C44.7109 56.4002 45.234 55.7924 45.6701 55.1287ZM70.2559 37.9013L68.5958 37.0636C66.5062 36.0099 63.9675 36.0085 61.8779 37.064C60.2871 37.8673 58.3627 37.8678 56.7716 37.064C54.6796 36.0076 52.1456 36.0085 50.0531 37.064C48.4843 37.8552 46.5362 37.8668 44.9464 37.0636C42.8586 36.009 40.3171 36.009 38.2284 37.064C36.6363 37.8682 34.7133 37.8678 33.1217 37.0636C31.0498 36.0174 28.4985 36.0076 26.4037 37.064L24.7441 37.9013V32.4524H70.2559V37.9013ZM18.7871 71.7628V32.4524H22.957V71.1494C22.957 71.6427 23.3573 72.043 23.8506 72.043H71.1494C71.6427 72.043 72.043 71.6427 72.043 71.1494V32.4524H76.2129V71.7628C76.2129 74.2168 74.2168 76.2129 71.7628 76.2129H23.2372C20.7832 76.2129 18.7871 74.2168 18.7871 71.7628Z" fill="#04DA21"/>
<path d="M50.2049 28.5226H69.7551C71.0168 28.5226 72.043 27.4959 72.043 26.2343V23.218C72.043 21.9564 71.0168 20.9302 69.7551 20.9302H50.2049C48.9432 20.9302 47.917 21.9564 47.917 23.218V26.2343C47.917 27.4959 48.9432 28.5226 50.2049 28.5226ZM49.7041 23.218C49.7041 22.9416 49.9289 22.7173 50.2049 22.7173H69.7551C70.0311 22.7173 70.2559 22.9416 70.2559 23.218V26.2343C70.2559 26.5107 70.0311 26.7355 69.7551 26.7355H50.2049C49.9289 26.7355 49.7041 26.5107 49.7041 26.2343V23.218Z" fill="#04DA21"/>
<path d="M29.5457 28.2843C31.5074 28.2843 33.1037 26.688 33.1037 24.7264C33.1037 22.7643 31.5074 21.1685 29.5457 21.1685C27.5836 21.1685 25.9878 22.7643 25.9878 24.7264C25.9878 26.688 27.5841 28.2843 29.5457 28.2843ZM29.5457 22.9556C30.5221 22.9556 31.3165 23.7495 31.3165 24.7264C31.3165 25.7028 30.5221 26.4972 29.5457 26.4972C28.5693 26.4972 27.7749 25.7028 27.7749 24.7264C27.7749 23.7495 28.5693 22.9556 29.5457 22.9556Z" fill="#04DA21"/>
<path d="M38.7037 28.2843C40.6653 28.2843 42.2616 26.688 42.2616 24.7264C42.2616 22.7643 40.6653 21.1685 38.7037 21.1685C36.7416 21.1685 35.1458 22.7643 35.1458 24.7264C35.1458 26.688 36.7416 28.2843 38.7037 28.2843ZM38.7037 22.9556C39.6801 22.9556 40.4745 23.7495 40.4745 24.7264C40.4745 25.7028 39.6801 26.4972 38.7037 26.4972C37.7273 26.4972 36.9329 25.7028 36.9329 24.7264C36.9329 23.7495 37.7273 22.9556 38.7037 22.9556Z" fill="#04DA21"/>
<path d="M55.5528 67.8717C60.6162 67.8717 64.7359 63.752 64.7359 58.6885C64.7359 56.7706 64.1458 54.93 63.0293 53.3658C62.7426 52.9642 62.1851 52.8711 61.783 53.1578C61.3813 53.4445 61.2883 54.0025 61.575 54.4041C62.4736 55.6635 62.9488 57.1448 62.9488 58.6885C62.9488 62.7668 59.631 66.0846 55.5528 66.0846C51.4745 66.0846 48.1567 62.7668 48.1567 58.6885C48.1567 54.6108 51.4745 51.293 55.5528 51.293C56.8573 51.293 58.1427 51.6406 59.2699 52.2991C59.6957 52.5481 60.243 52.4043 60.492 51.9785C60.741 51.5522 60.5976 51.0054 60.1713 50.7559C58.771 49.9382 57.1742 49.5059 55.5528 49.5059C50.4893 49.5059 46.3696 53.6251 46.3696 58.6885C46.3696 63.752 50.4893 67.8717 55.5528 67.8717Z" fill="#04DA21"/>
</svg>
