<svg width="37" height="37" viewBox="0 0 37 37" fill="none" xmlns="http://www.w3.org/2000/svg">
<path d="M18.5 37C28.7173 37 37 28.7173 37 18.5C37 8.28273 28.7173 0 18.5 0C8.28273 0 0 8.28273 0 18.5C0 28.7173 8.28273 37 18.5 37Z" fill="#FFCA28"/>
<path d="M28.8831 15.0544C28.2448 15.0544 27.7268 14.5364 27.7268 13.8981C27.7268 12.6239 26.6908 11.5856 25.4143 11.5856C24.1378 11.5856 23.1018 12.6239 23.1018 13.8981C23.1018 14.5364 22.5838 15.0544 21.9456 15.0544C21.3073 15.0544 20.7893 14.5364 20.7893 13.8981C20.7893 11.3474 22.8636 9.27313 25.4143 9.27313C27.965 9.27313 30.0393 11.3474 30.0393 13.8981C30.0393 14.5387 29.5213 15.0544 28.8831 15.0544Z" fill="#A62900"/>
<path d="M15.0081 15.0544C14.3698 15.0544 13.8518 14.5364 13.8518 13.8981C13.8518 12.6239 12.8135 11.5856 11.5393 11.5856C10.2651 11.5856 9.22681 12.6239 9.22681 13.8981C9.22681 14.5364 8.70881 15.0544 8.07056 15.0544C7.43231 15.0544 6.91431 14.5364 6.91431 13.8981C6.91431 11.3474 8.98862 9.27313 11.5393 9.27313C14.09 9.27313 16.1643 11.3474 16.1643 13.8981C16.1643 14.5387 15.6463 15.0544 15.0081 15.0544Z" fill="#A62900"/>
<path d="M31.6304 21.2958C31.4107 21.0068 31.0708 20.8356 30.71 20.8356H6.24377C5.88071 20.8356 5.54077 21.0044 5.3234 21.2935C5.1014 21.5849 5.03202 21.9572 5.12915 22.3064C6.80108 28.2472 12.291 32.3981 18.4746 32.3981C24.6582 32.3981 30.1481 28.2472 31.82 22.3064C31.9195 21.9572 31.8501 21.5849 31.6304 21.2958Z" fill="#FAFAFA"/>
</svg>
