<svg width="142" height="142" viewBox="0 0 142 142" fill="none" xmlns="http://www.w3.org/2000/svg">
<path d="M71 142C110.212 142 142 110.212 142 71C142 31.7878 110.212 0 71 0C31.7878 0 0 31.7878 0 71C0 110.212 31.7878 142 71 142Z" fill="#FFCA28"/>
<path d="M110.849 57.7765C108.399 57.7765 106.411 55.7885 106.411 53.339C106.411 48.4489 102.435 44.464 97.536 44.464C92.637 44.464 88.661 48.4489 88.661 53.339C88.661 55.7885 86.673 57.7765 84.2235 57.7765C81.774 57.7765 79.786 55.7885 79.786 53.339C79.786 43.5499 87.7469 35.589 97.536 35.589C107.325 35.589 115.286 43.5499 115.286 53.339C115.286 55.7974 113.298 57.7765 110.849 57.7765Z" fill="#6D4C41"/>
<path d="M57.5985 57.7765C55.149 57.7765 53.161 55.7885 53.161 53.339C53.161 48.4489 49.1761 44.464 44.286 44.464C39.3959 44.464 35.411 48.4489 35.411 53.339C35.411 55.7885 33.423 57.7765 30.9735 57.7765C28.524 57.7765 26.536 55.7885 26.536 53.339C26.536 43.5499 34.4969 35.589 44.286 35.589C54.0751 35.589 62.036 43.5499 62.036 53.339C62.036 55.7974 60.048 57.7765 57.5985 57.7765Z" fill="#6D4C41"/>
<path d="M121.392 81.7301C120.549 80.6207 119.245 79.964 117.86 79.964H23.9626C22.5692 79.964 21.2646 80.6119 20.4303 81.7212C19.5783 82.8395 19.3121 84.2684 19.6848 85.6085C26.1014 108.408 47.1707 124.339 70.9024 124.339C94.6342 124.339 115.703 108.408 122.12 85.6085C122.502 84.2684 122.235 82.8395 121.392 81.7301Z" fill="#FAFAFA"/>
</svg>
