<svg width="131" height="131" viewBox="0 0 131 131" fill="none" xmlns="http://www.w3.org/2000/svg">
<path d="M65.5 131C101.675 131 131 101.675 131 65.5C131 29.3253 101.675 0 65.5 0C29.3253 0 0 29.3253 0 65.5C0 101.675 29.3253 131 65.5 131Z" fill="#FFCA28"/>
<path d="M102.262 53.3005C100.002 53.3005 98.1681 51.4665 98.1681 49.2068C98.1681 44.6955 94.5001 41.0193 89.9806 41.0193C85.4611 41.0193 81.7931 44.6955 81.7931 49.2068C81.7931 51.4665 79.9591 53.3005 77.6993 53.3005C75.4396 53.3005 73.6056 51.4665 73.6056 49.2068C73.6056 40.176 80.9498 32.8318 89.9806 32.8318C99.0114 32.8318 106.356 40.176 106.356 49.2068C106.356 51.4747 104.522 53.3005 102.262 53.3005Z" fill="#6D4C41"/>
<path d="M53.1368 53.3005C50.8771 53.3005 49.0431 51.4665 49.0431 49.2068C49.0431 44.6955 45.3669 41.0193 40.8556 41.0193C36.3443 41.0193 32.6681 44.6955 32.6681 49.2068C32.6681 51.4665 30.8341 53.3005 28.5743 53.3005C26.3146 53.3005 24.4806 51.4665 24.4806 49.2068C24.4806 40.176 31.8248 32.8318 40.8556 32.8318C49.8864 32.8318 57.2306 40.176 57.2306 49.2068C57.2306 51.4747 55.3966 53.3005 53.1368 53.3005Z" fill="#6D4C41"/>
<path d="M57.3125 65.5C48.2817 65.5 40.9375 72.8442 40.9375 81.875V95.9575C40.9375 97.8324 42.2148 99.4781 44.0406 99.9284L68.6031 106.069C68.9306 106.151 69.2663 106.192 69.5938 106.192C70.4944 106.192 71.3868 105.897 72.1155 105.332C73.1062 104.554 73.6875 103.359 73.6875 102.098V81.875C73.6875 72.8442 66.3433 65.5 57.3125 65.5Z" fill="#F44336"/>
<path d="M65.5 106.438C50.1157 106.438 35.8121 97.4968 29.0738 83.6681C28.0831 81.6376 28.9264 79.1896 30.9569 78.1989C33.012 77.2164 35.4437 78.0515 36.4262 80.082C41.8054 91.1188 53.2187 98.2501 65.5 98.2501C77.7731 98.2501 89.1864 91.1188 94.5738 80.082C95.5809 78.0433 98.0535 77.2328 100.043 78.1989C102.082 79.1896 102.925 81.6376 101.926 83.6681C95.1797 97.4968 80.8843 106.438 65.5 106.438Z" fill="#6D4C41"/>
</svg>
