<svg width="131" height="131" viewBox="0 0 131 131" fill="none" xmlns="http://www.w3.org/2000/svg">
<path d="M65.4019 130.804C101.522 130.804 130.804 101.522 130.804 65.4019C130.804 29.2814 101.522 0 65.4019 0C29.2814 0 0 29.2814 0 65.4019C0 101.522 29.2814 130.804 65.4019 130.804Z" fill="#FFCA28"/>
<path d="M117.478 5.25391C114.323 5.25391 111.347 6.31669 109.003 8.14794C106.66 6.31669 103.684 5.25391 100.528 5.25391C93.1813 5.25391 87.2025 10.9657 87.2025 17.9855C87.2025 28.9239 103.417 40.7944 106.66 43.0617C107.368 43.5522 108.186 43.7974 109.003 43.7974C109.821 43.7974 110.638 43.5522 111.347 43.0617C114.59 40.7889 130.804 28.9239 130.804 17.9855C130.804 10.9657 124.825 5.25391 117.478 5.25391Z" fill="#E53935"/>
<path d="M30.2756 92.4565C27.12 92.4565 24.1442 93.5193 21.8006 95.3506C19.4571 93.5193 16.4813 92.4565 13.3256 92.4565C5.97882 92.4565 0 98.1683 0 105.188C0 116.127 16.2142 127.997 19.4571 130.264C20.1656 130.755 20.9831 131 21.8006 131C22.6182 131 23.4357 130.755 24.1442 130.264C27.387 127.992 43.6013 116.127 43.6013 105.188C43.6013 98.1683 37.6224 92.4565 30.2756 92.4565Z" fill="#E53935"/>
<path d="M50.4139 61.3141C48.1575 61.3141 46.3263 59.4828 46.3263 57.2265C46.3263 54.2234 43.8846 51.7763 40.8761 51.7763C37.8676 51.7763 35.426 54.2234 35.426 57.2265C35.426 59.4828 33.5947 61.3141 31.3384 61.3141C29.082 61.3141 27.2507 59.4828 27.2507 57.2265C27.2507 49.7162 33.3604 43.6011 40.8761 43.6011C48.3919 43.6011 54.5015 49.7162 54.5015 57.2265C54.5015 59.4828 52.6703 61.3141 50.4139 61.3141Z" fill="#6D4C41"/>
<path d="M99.4654 61.3141C97.2091 61.3141 95.3778 59.4828 95.3778 57.2265C95.3778 54.2234 92.9361 51.7763 89.9276 51.7763C86.9192 51.7763 84.4775 54.2234 84.4775 57.2265C84.4775 59.4828 82.6462 61.3141 80.3899 61.3141C78.1335 61.3141 76.3022 59.4828 76.3022 57.2265C76.3022 49.7162 82.4119 43.6011 89.9276 43.6011C97.4434 43.6011 103.553 49.7162 103.553 57.2265C103.553 59.4828 101.722 61.3141 99.4654 61.3141Z" fill="#6D4C41"/>
<path d="M65.4019 98.1028C53.4987 98.1028 42.315 93.4701 33.8999 85.0496C32.303 83.4527 32.303 80.8639 33.8999 79.267C35.4968 77.6701 38.0857 77.6701 39.6826 79.267C46.5498 86.1451 55.6842 89.9275 65.4019 89.9275C75.1195 89.9275 84.254 86.1451 91.1266 79.2725C92.7235 77.6756 95.3123 77.6756 96.9092 79.2725C98.5061 80.8694 98.5061 83.4582 96.9092 85.0551C88.4887 93.4701 77.305 98.1028 65.4019 98.1028Z" fill="#6D4C41"/>
</svg>
