<svg width="63" height="64" viewBox="0 0 63 64" fill="none" xmlns="http://www.w3.org/2000/svg">
<path d="M62.6582 31.9619C62.6582 49.2645 48.6317 63.291 31.3291 63.291C14.0265 63.291 0 49.2645 0 31.9619C0 14.6593 14.0265 0.632812 31.3291 0.632812C48.6317 0.632812 62.6582 14.6593 62.6582 31.9619Z" fill="white"/>
<mask id="mask0" mask-type="alpha" maskUnits="userSpaceOnUse" x="0" y="0" width="63" height="64">
<path d="M62.6582 31.9619C62.6582 49.2645 48.6317 63.291 31.3291 63.291C14.0265 63.291 0 49.2645 0 31.9619C0 14.6593 14.0265 0.632812 31.3291 0.632812C48.6317 0.632812 62.6582 14.6593 62.6582 31.9619Z" fill="url(#paint0_linear)"/>
</mask>
<g mask="url(#mask0)">
<path d="M20.6773 33.1664L24.5672 0.648438H61.7618V12.0996H36.5429L35.1006 24.7309C36.1496 24.119 37.519 23.58 39.209 23.1138C40.9282 22.6476 42.6036 22.4145 44.2353 22.4145C50.5583 22.4145 55.4097 24.2939 58.7897 28.0527C62.1989 31.7823 63.9034 37.0272 63.9034 43.7872C63.9034 47.8665 62.9856 51.567 61.1499 54.8887C59.3434 58.1813 56.7938 60.7163 53.5012 62.4937C50.2086 64.2711 46.3187 65.1598 41.8315 65.1598C37.8396 65.1598 34.0953 64.344 30.5988 62.7122C27.1022 61.0514 24.3633 58.7932 22.3819 55.9377C20.4005 53.053 19.4244 49.8041 19.4535 46.191H34.2264C34.3721 48.5221 35.1152 50.3723 36.4555 51.7418C37.7958 53.1113 39.5587 53.796 41.744 53.796C46.6975 53.796 49.1742 50.1247 49.1742 42.7819C49.1742 35.9928 46.1439 32.5982 40.0832 32.5982C36.6449 32.5982 34.0808 33.7054 32.3908 35.9199L20.6773 33.1664Z" fill="white"/>
</g>
<path d="M47.7971 18.7328C47.7956 18.7071 47.7931 18.682 47.7896 18.6568C47.7855 18.6321 47.781 18.6079 47.775 18.5843C47.7689 18.5606 47.7619 18.537 47.7533 18.5143C47.7448 18.4911 47.7357 18.4685 47.7246 18.4463C47.714 18.4247 47.703 18.404 47.6904 18.3839C47.6778 18.3628 47.6642 18.3426 47.6496 18.323C47.635 18.3039 47.6199 18.2852 47.6038 18.2676C47.5877 18.25 47.5711 18.2329 47.5534 18.2168C47.5353 18.2001 47.5167 18.1845 47.4966 18.1699C47.4774 18.1558 47.4583 18.1423 47.4376 18.1302C47.4165 18.1171 47.3949 18.1055 47.3727 18.0949C47.3506 18.0844 47.3284 18.0748 47.3052 18.0662C47.2821 18.0577 47.2589 18.0506 47.2348 18.0446C47.2101 18.038 47.1849 18.033 47.1592 18.029C47.1461 18.027 47.1341 18.0224 47.121 18.0214C41.1218 17.4213 36.4301 16.2014 31.5838 11.9825C31.2691 11.7086 30.7913 11.7418 30.5185 12.056C30.5008 12.0761 30.4878 12.0987 30.4726 12.1204C25.5992 16.3253 21.5292 17.4445 15.7566 18.0209C15.3704 18.0597 15.0764 18.3844 15.0764 18.7726V36.4595C15.0764 36.5265 15.0855 36.593 15.1031 36.6574C18.1656 47.952 30.5169 53.3178 31.041 53.5408C31.1357 53.5811 31.2364 53.6013 31.3366 53.6013C31.4358 53.6013 31.5359 53.5816 31.6291 53.5424C32.1597 53.3198 44.6525 47.9545 47.7151 36.6579C47.7256 36.6181 47.7337 36.5779 47.7377 36.5366L47.7971 35.9521C47.7996 35.9269 47.8011 35.9012 47.8011 35.8755V18.7731C47.8011 18.7585 47.7981 18.7459 47.7971 18.7328ZM46.2414 36.3201C43.5983 45.9356 33.2261 51.1394 31.3381 52.0159C29.4667 51.1368 19.245 45.9447 16.5863 36.3568V19.4517C22.0584 18.8461 26.3025 17.592 31.1125 13.5542C35.8793 17.5079 40.6742 18.8275 46.2903 19.4492V35.8363L46.2414 36.3201Z" fill="#04DA21"/>
<path d="M38.4871 28.0856H37.7621C37.3633 24.7411 34.4901 22.1372 31.0112 22.1372C27.5323 22.1372 24.6591 24.7411 24.2609 28.0856H23.3838C22.967 28.0856 22.6287 28.4234 22.6287 28.8407V39.9168C22.6287 40.3342 22.967 40.672 23.3838 40.672H38.4876C38.9044 40.672 39.2428 40.3342 39.2428 39.9168V28.8407C39.2422 28.4234 38.9039 28.0856 38.4871 28.0856ZM31.0107 23.6476C33.6549 23.6476 35.8459 25.5768 36.2351 28.0856H25.7863C26.176 25.5768 28.3666 23.6476 31.0107 23.6476ZM37.7319 29.5959V39.1616H24.1385V29.5959H37.7319Z" fill="#04DA21"/>
<defs>
<linearGradient id="paint0_linear" x1="29.6036" y1="71.3481" x2="77.7678" y2="11.5911" gradientUnits="userSpaceOnUse">
<stop stop-color="#EEE8FF"/>
<stop offset="1" stop-color="#FFF5FF"/>
</linearGradient>
</defs>
</svg>
