<svg width="63" height="63" viewBox="0 0 63 63" fill="none" xmlns="http://www.w3.org/2000/svg">
<path d="M62.9114 31.3291C62.9114 48.6317 48.8849 62.6582 31.5823 62.6582C14.2797 62.6582 0.253174 48.6317 0.253174 31.3291C0.253174 14.0265 14.2797 0 31.5823 0C48.8849 0 62.9114 14.0265 62.9114 31.3291Z" fill="white"/>
<mask id="mask0" mask-type="alpha" maskUnits="userSpaceOnUse" x="0" y="0" width="63" height="63">
<path d="M62.9114 31.3291C62.9114 48.6317 48.8849 62.6582 31.5823 62.6582C14.2797 62.6582 0.253174 48.6317 0.253174 31.3291C0.253174 14.0265 14.2797 0 31.5823 0C48.8849 0 62.9114 14.0265 62.9114 31.3291Z" fill="url(#paint0_linear)"/>
</mask>
<g mask="url(#mask0)">
<path d="M52.7053 62.6583H37.9323V15.6296L23.4216 19.8692V8.68022L51.3503 -0.979004H52.7053V62.6583Z" fill="white"/>
</g>
<path fill-rule="evenodd" clip-rule="evenodd" d="M9.02539 22.2086C9.02539 20.6706 10.2722 19.4238 11.8102 19.4238H51.5932C53.1312 19.4238 54.378 20.6706 54.378 22.2086V38.1218C54.378 39.6598 53.1312 40.9066 51.5932 40.9066H48.6095V39.3153H51.5932C52.2523 39.3153 52.7867 38.781 52.7867 38.1218V22.2086C52.7867 21.5495 52.2523 21.0151 51.5932 21.0151H11.8102C11.1511 21.0151 10.6167 21.5495 10.6167 22.2086V38.1218C10.6167 38.781 11.1511 39.3153 11.8102 39.3153H33.1936V40.9066H11.8102C10.2722 40.9066 9.02539 39.6598 9.02539 38.1218V22.2086Z" fill="#04DA21"/>
<path fill-rule="evenodd" clip-rule="evenodd" d="M40.0608 38.906L44.2542 43.0986L45.6297 41.7231L41.437 37.5297L43.2876 35.6791L35.6712 33.1401L38.2101 40.7566L40.0608 38.906ZM37.6476 43.1402C37.431 43.0889 37.2569 42.9298 37.1868 42.7189L33.5604 31.84C33.4834 31.6097 33.5435 31.3555 33.715 31.184C33.8859 31.0131 34.1407 30.9505 34.3711 31.0294L45.2499 34.6558C45.4609 34.7259 45.6199 34.9 45.6712 35.1166C45.7219 35.3325 45.6574 35.5598 45.5003 35.7169L43.6874 37.5298L47.4269 41.2699C47.6773 41.5203 47.6773 41.926 47.4269 42.1764L44.7075 44.8958C44.457 45.1463 44.0514 45.1463 43.801 44.8958L40.0609 41.1563L38.2479 42.9693C38.0914 43.1258 37.8642 43.1903 37.6476 43.1402Z" fill="#04DA21"/>
<path d="M34.0675 28.3314C33.7132 28.3314 33.4265 28.0447 33.4265 27.6904V23.8442C33.4265 23.4898 33.7132 23.2031 34.0675 23.2031C34.4219 23.2031 34.7086 23.4898 34.7086 23.8442V27.6904C34.7086 28.0447 34.4219 28.3314 34.0675 28.3314Z" fill="#04DA21"/>
<path d="M30.8949 29.2704L28.1749 26.5503C27.9245 26.2999 27.9245 25.8942 28.1749 25.6438C28.4252 25.3935 28.8309 25.3935 29.0813 25.6438L31.8013 28.3638C32.0517 28.6142 32.0517 29.0199 31.8013 29.2703C31.5509 29.5207 31.1453 29.5207 30.8949 29.2704Z" fill="#04DA21"/>
<path d="M28.1749 37.4295C27.9245 37.1791 27.9245 36.7734 28.1749 36.523L30.8949 33.803C31.1452 33.5526 31.5509 33.5526 31.8013 33.803C32.0517 34.0534 32.0517 34.4591 31.8013 34.7095L29.0813 37.4295C28.8309 37.6799 28.4253 37.6799 28.1749 37.4295Z" fill="#04DA21"/>
<path d="M36.3335 29.2703C36.0832 29.0199 36.0832 28.6142 36.3335 28.3638L39.0535 25.6438C39.3039 25.3935 39.7096 25.3935 39.96 25.6438C40.2104 25.8942 40.2104 26.2999 39.96 26.5503L37.24 29.2703C36.9896 29.5207 36.584 29.5207 36.3335 29.2703Z" fill="#04DA21"/>
<path d="M30.2214 32.1776H26.3752C26.0208 32.1776 25.7341 31.8909 25.7341 31.5365C25.7341 31.1822 26.0208 30.8955 26.3752 30.8955H30.2214C30.5757 30.8955 30.8624 31.1822 30.8624 31.5365C30.8624 31.8909 30.5757 32.1776 30.2214 32.1776Z" fill="#04DA21"/>
<defs>
<linearGradient id="paint0_linear" x1="29.8567" y1="70.7153" x2="78.021" y2="10.9583" gradientUnits="userSpaceOnUse">
<stop stop-color="#EEE8FF"/>
<stop offset="1" stop-color="#FFF5FF"/>
</linearGradient>
</defs>
</svg>
