<svg width="63" height="64" viewBox="0 0 63 64" fill="none" xmlns="http://www.w3.org/2000/svg">
<path d="M62.6582 32.2783C62.6582 49.5809 48.6317 63.6074 31.3291 63.6074C14.0265 63.6074 0 49.5809 0 32.2783C0 14.9757 14.0265 0.949219 31.3291 0.949219C48.6317 0.949219 62.6582 14.9757 62.6582 32.2783Z" fill="white"/>
<mask id="mask0" mask-type="alpha" maskUnits="userSpaceOnUse" x="0" y="0" width="63" height="64">
<path d="M62.6582 32.2783C62.6582 49.5809 48.6317 63.6074 31.3291 63.6074C14.0265 63.6074 0 49.5809 0 32.2783C0 14.9757 14.0265 0.949219 31.3291 0.949219C48.6317 0.949219 62.6582 14.9757 62.6582 32.2783Z" fill="url(#paint0_linear)"/>
</mask>
<g mask="url(#mask0)">
<path d="M64.0346 10.8209L40.258 66.5909H24.6984L48.5186 14.3174H18.186V2.95361H64.0346V10.8209Z" fill="white"/>
</g>
<path fill-rule="evenodd" clip-rule="evenodd" d="M48.9406 33.3727C50.4916 34.7426 51.7178 36.7293 51.7178 39.5266C51.7178 43.2948 50.2817 45.61 48.5996 46.988C46.9494 48.3398 45.1249 48.7407 44.3662 48.8228C43.7747 48.8867 41.7893 48.8964 39.7105 48.889C37.6019 48.8814 35.3196 48.8553 34.0798 48.8394C33.9609 48.8379 33.8636 48.9334 33.8636 49.0528C33.8636 50.4977 32.1133 51.2213 31.0897 50.1996L26.8124 45.9305C26.169 45.2884 26.169 44.2472 26.8124 43.605L31.0592 39.3663C32.0941 38.3334 33.8636 39.0649 33.8636 40.5257C33.8636 40.6496 33.9592 40.7462 34.0766 40.7515C35.2579 40.8044 37.4341 40.8914 39.4708 40.9165C40.4899 40.929 41.4665 40.9259 42.2627 40.8959C43.0938 40.8646 43.6352 40.8058 43.8488 40.74C44.1032 40.6616 44.465 40.4463 44.8063 40.0993C45.1422 39.7578 45.4152 39.3318 45.542 38.8756C45.6654 38.4315 45.655 37.9472 45.4138 37.4386C45.1679 36.92 44.6564 36.3237 43.6848 35.7218L44.4295 34.5242C45.5608 35.225 46.2968 36.0059 46.6902 36.8356C47.0884 37.6751 47.1091 38.5099 46.9028 39.2524C46.6999 39.9827 46.2823 40.6107 45.8141 41.0867C45.3511 41.5574 44.7952 41.9236 44.2654 42.0868C43.8434 42.2168 43.1114 42.2745 42.3159 42.3044C41.4857 42.3357 40.4825 42.3385 39.4534 42.3259C37.3938 42.3006 35.1996 42.2128 34.0132 42.1596C33.1347 42.1201 32.4514 41.3969 32.4514 40.5257C32.4514 40.3207 32.203 40.218 32.0578 40.363L27.811 44.6016C27.7191 44.6934 27.7191 44.8421 27.811 44.9339L32.0883 49.203C32.2223 49.3367 32.4514 49.242 32.4514 49.0528C32.4514 48.1487 33.1913 47.4184 34.0979 47.43C35.3363 47.4459 37.6135 47.472 39.7155 47.4795C41.8473 47.4871 43.7234 47.4745 44.2141 47.4215C44.7905 47.3591 46.3268 47.0263 47.7037 45.8984C49.0485 44.7967 50.3056 42.8864 50.3056 39.5266C50.3056 37.1984 49.3056 35.5773 48.0047 34.4282C46.6846 33.2622 45.0527 32.5847 43.8491 32.2143L44.2652 30.8673C45.5635 31.2669 47.4089 32.0197 48.9406 33.3727Z" fill="#04DA21"/>
<path fill-rule="evenodd" clip-rule="evenodd" d="M20.8987 35.9625C20.8987 35.5732 21.2148 35.2577 21.6048 35.2577H25.5957C25.9857 35.2577 26.3018 35.5732 26.3018 35.9625C26.3018 36.3517 25.9857 36.6672 25.5957 36.6672H21.6048C21.2148 36.6672 20.8987 36.3517 20.8987 35.9625ZM20.8987 39.3168C20.8987 38.9276 21.2148 38.6121 21.6048 38.6121H27.2761C27.6661 38.6121 27.9822 38.9276 27.9822 39.3168C27.9822 39.7061 27.6661 40.0216 27.2761 40.0216H21.6048C21.2148 40.0216 20.8987 39.7061 20.8987 39.3168Z" fill="#04DA21"/>
<path fill-rule="evenodd" clip-rule="evenodd" d="M16.9077 19.5014C16.9077 18.5932 17.6454 17.8569 18.5553 17.8569H43.1386C44.0486 17.8569 44.7862 18.5932 44.7862 19.5014V41.4133H43.374V19.5014C43.374 19.3716 43.2686 19.2664 43.1386 19.2664H18.5553C18.4253 19.2664 18.3199 19.3716 18.3199 19.5014V44.0376C18.3199 44.1674 18.4253 44.2726 18.5553 44.2726H26.856V45.6821H18.5553C17.6454 45.6821 16.9077 44.9458 16.9077 44.0376V19.5014Z" fill="#04DA21"/>
<path fill-rule="evenodd" clip-rule="evenodd" d="M28.6883 19.9712V23.5208L30.1011 22.8941C30.7097 22.6242 31.4043 22.6242 32.0129 22.8941L33.4257 23.5208V19.9712H28.6883ZM28.2176 18.5617C27.6976 18.5617 27.2761 18.9824 27.2761 19.5014V24.2438C27.2761 24.9238 27.9774 25.3786 28.6 25.1025L30.6746 24.1821C30.9181 24.0742 31.1959 24.0742 31.4394 24.1821L33.5141 25.1025C34.1366 25.3786 34.8379 24.9238 34.8379 24.2438V19.5014C34.8379 18.9824 34.4164 18.5617 33.8964 18.5617H28.2176Z" fill="#04DA21"/>
<defs>
<linearGradient id="paint0_linear" x1="29.6036" y1="71.6645" x2="77.7678" y2="11.9075" gradientUnits="userSpaceOnUse">
<stop stop-color="#EEE8FF"/>
<stop offset="1" stop-color="#FFF5FF"/>
</linearGradient>
</defs>
</svg>
