<svg width="63" height="63" viewBox="0 0 63 63" fill="none" xmlns="http://www.w3.org/2000/svg">
<path d="M62.66 31.33C62.66 48.6331 48.6331 62.66 31.33 62.66C14.0269 62.66 0 48.6331 0 31.33C0 14.0269 14.0269 0 31.33 0C48.6331 0 62.66 14.0269 62.66 31.33Z" fill="white"/>
<mask id="mask0" mask-type="alpha" maskUnits="userSpaceOnUse" x="0" y="0" width="63" height="63">
<path d="M62.66 31.33C62.66 48.6331 48.6331 62.66 31.33 62.66C14.0269 62.66 0 48.6331 0 31.33C0 14.0269 14.0269 0 31.33 0C48.6331 0 62.66 14.0269 62.66 31.33Z" fill="#E9FCFC"/>
</mask>
<g mask="url(#mask0)">
<path d="M41.7044 29.9244C41.8129 29.8079 41.8662 29.6509 41.8491 29.4924L40.9137 20.8754C40.8824 20.5884 40.6349 20.3797 40.3505 20.3797H38.7923V20.1919C38.7923 18.8666 37.6798 17.7998 36.3262 17.7998C34.9724 17.7998 33.8599 18.8666 33.8599 20.1919V20.3797H32.3018C32.0174 20.3797 31.7698 20.5884 31.7386 20.8755L30.8032 29.4924C30.786 29.651 30.8397 29.808 30.9478 29.9244C31.0559 30.0404 31.2082 30.1052 31.3664 30.1052H41.2858C41.4439 30.1052 41.5963 30.0404 41.7044 29.9244L41.558 29.788H31.0941C31.0248 29.7134 30.9912 29.6137 31.002 29.5139L31.9375 20.897C31.9571 20.7167 32.1143 20.5797 32.3018 20.5797H34.0599V20.1919C34.0599 18.9832 35.0766 17.9998 36.3262 17.9998C37.5757 17.9998 38.5923 18.9832 38.5923 20.1919V20.5797H40.3505C40.538 20.5797 40.6952 20.7167 40.7148 20.897L41.6503 29.5139L41.558 29.788L41.7044 29.9244Z" fill="#04DA21"/>
<path fill-rule="evenodd" clip-rule="evenodd" d="M34.7925 20.1919C34.7925 19.374 35.4805 18.7085 36.3262 18.7085C37.1717 18.7085 37.8597 19.374 37.8597 20.1919V20.5797H34.7925V20.1919ZM36.3262 18.9085C35.5847 18.9085 34.9925 19.4907 34.9925 20.1919V20.3797H37.6597V20.1919C37.6597 19.4907 37.0676 18.9085 36.3262 18.9085Z" fill="#04DA21"/>
<path fill-rule="evenodd" clip-rule="evenodd" d="M38.226 22.4235C38.4283 22.4235 38.5923 22.2649 38.5923 22.0692V21.2883H40.0206L40.8792 29.1965H31.7731L32.6316 21.2883H34.0599V22.0692C34.0599 22.2649 34.224 22.4235 34.4262 22.4235C34.6285 22.4235 34.7925 22.2649 34.7925 22.0692V21.2883H37.8597V22.0692C37.8597 22.2649 38.0238 22.4235 38.226 22.4235ZM31.996 28.9965H40.6563L39.8412 21.4883H38.7923V22.0692C38.7923 22.3815 38.5324 22.6235 38.226 22.6235C37.9196 22.6235 37.6597 22.3815 37.6597 22.0692V21.4883H34.9925V22.0692C34.9925 22.3815 34.7326 22.6235 34.4262 22.6235C34.1198 22.6235 33.8599 22.3815 33.8599 22.0692V21.4883H32.8111L31.996 28.9965Z" fill="#04DA21"/>
<path fill-rule="evenodd" clip-rule="evenodd" d="M41.6503 29.5139L40.7148 20.897C40.6952 20.7167 40.538 20.5797 40.3505 20.5797H38.5923V20.1919C38.5923 18.9832 37.5757 17.9998 36.3262 17.9998C35.0766 17.9998 34.0599 18.9832 34.0599 20.1919V20.5797H32.3018C32.1143 20.5797 31.9571 20.7167 31.9375 20.897L31.002 29.5139L31.0941 29.788H41.558L41.6503 29.5139ZM38.5923 22.0692C38.5923 22.2649 38.4283 22.4235 38.226 22.4235C38.0238 22.4235 37.8597 22.2649 37.8597 22.0692V21.2883H34.7925V22.0692C34.7925 22.2649 34.6285 22.4235 34.4262 22.4235C34.224 22.4235 34.0599 22.2649 34.0599 22.0692V21.2883H32.6316L31.7731 29.1965H40.8792L40.0206 21.2883H38.5923V22.0692ZM36.3262 18.7085C35.4805 18.7085 34.7925 19.374 34.7925 20.1919V20.5797H37.8597V20.1919C37.8597 19.374 37.1717 18.7085 36.3262 18.7085Z" fill="#04DA21"/>
<path d="M49.8623 13.9209H21.9792C20.7963 13.9209 19.8337 14.8835 19.8337 16.0664V33.7615C19.8337 34.0575 20.074 34.2978 20.37 34.2978H51.4715C51.7675 34.2978 52.0077 34.0575 52.0077 33.7615V16.0664C52.0078 14.8835 51.0453 13.9209 49.8623 13.9209ZM50.9353 33.2253H20.9062V16.0664C20.9062 15.4744 21.3878 14.9934 21.9792 14.9934H49.8623C50.4538 14.9934 50.9353 15.4744 50.9353 16.0664V33.2253Z" fill="#04DA21"/>
<path fill-rule="evenodd" clip-rule="evenodd" d="M21.9793 13.7207H49.8624C51.1558 13.7207 52.2079 14.7728 52.2078 16.0662V33.7613C52.2078 34.1678 51.878 34.4976 51.4716 34.4976H20.37C19.9636 34.4976 19.6338 34.1678 19.6338 33.7613V16.0662C19.6338 14.7728 20.6858 13.7207 21.9793 13.7207ZM21.1063 33.0251H50.7354V16.0662C50.7354 15.5847 50.3434 15.1932 49.8624 15.1932H21.9793C21.4982 15.1932 21.1063 15.5847 21.1063 16.0662V33.0251ZM21.9793 13.9207H49.8624C51.0453 13.9207 52.0078 14.8833 52.0078 16.0662V33.7613C52.0078 34.0573 51.7675 34.2976 51.4716 34.2976H20.37C20.074 34.2976 19.8338 34.0573 19.8338 33.7613V16.0662C19.8338 14.8833 20.7963 13.9207 21.9793 13.9207ZM50.9354 33.2251V16.0662C50.9354 15.4742 50.4538 14.9932 49.8624 14.9932H21.9793C21.3878 14.9932 20.9063 15.4742 20.9063 16.0662V33.2251H50.9354Z" fill="#04DA21"/>
<path d="M51.4716 33.2261H20.37C20.074 33.2261 19.8337 33.4663 19.8337 33.7623V36.4429C19.8337 37.6259 20.7963 38.5884 21.9792 38.5884H49.8623C51.0453 38.5884 52.0078 37.6259 52.0078 36.4429V33.7623C52.0078 33.4663 51.7676 33.2261 51.4716 33.2261ZM50.9353 36.443C50.9353 37.035 50.4538 37.516 49.8623 37.516H21.9792C21.3878 37.516 20.9062 37.035 20.9062 36.443V34.2986H50.9354V36.443H50.9353Z" fill="#04DA21"/>
<path fill-rule="evenodd" clip-rule="evenodd" d="M50.7354 36.2428V34.4984H21.1063V36.4428C21.1063 36.9243 21.4982 37.3158 21.9793 37.3158H49.8624C50.3434 37.3158 50.7354 36.9243 50.7354 36.4428L50.7354 36.2428ZM50.9354 36.4428V34.2984H20.9063V36.4428C20.9063 37.0348 21.3878 37.5158 21.9793 37.5158H49.8624C50.4538 37.5158 50.9354 37.0348 50.9354 36.4428ZM20.37 33.0259H51.4716C51.8781 33.0259 52.2078 33.3557 52.2078 33.7621V36.4427C52.2078 37.7361 51.1558 38.7882 49.8624 38.7882H21.9793C20.6859 38.7882 19.6338 37.7361 19.6338 36.4427V33.7621C19.6338 33.3557 19.9636 33.0259 20.37 33.0259ZM20.37 33.2259H51.4716C51.7676 33.2259 52.0078 33.4661 52.0078 33.7621V36.4427C52.0078 37.6257 51.0453 38.5882 49.8624 38.5882H21.9793C20.7963 38.5882 19.8338 37.6257 19.8338 36.4427V33.7621C19.8338 33.4661 20.074 33.2259 20.37 33.2259Z" fill="#04DA21"/>
<path d="M42.8916 41.8047H28.9495C28.0626 41.8047 27.3408 42.5265 27.3408 43.4134C27.3408 44.3003 28.0626 45.0221 28.9495 45.0221H42.8916C43.7786 45.0221 44.5003 44.3003 44.5003 43.4134C44.5003 42.5265 43.7785 41.8047 42.8916 41.8047ZM42.8916 43.9496H28.9495C28.6535 43.9496 28.4133 43.7089 28.4133 43.4134C28.4133 43.1179 28.6535 42.8772 28.9495 42.8772H42.8916C43.1876 42.8772 43.4278 43.1179 43.4278 43.4134C43.4278 43.7089 43.1876 43.9496 42.8916 43.9496Z" fill="#04DA21"/>
<path fill-rule="evenodd" clip-rule="evenodd" d="M28.9496 41.6045H42.8916C43.889 41.6045 44.7004 42.4158 44.7004 43.4132C44.7004 44.4106 43.8891 45.2219 42.8917 45.2219H28.9496C27.9522 45.2219 27.1409 44.4106 27.1409 43.4132C27.1409 42.4158 27.9522 41.6045 28.9496 41.6045ZM28.9496 43.7494H42.8916C43.0771 43.7494 43.2279 43.5983 43.2279 43.4132C43.2279 43.2281 43.0771 43.077 42.8917 43.077H28.9496C28.7642 43.077 28.6134 43.2281 28.6134 43.4132C28.6134 43.5983 28.7642 43.7494 28.9496 43.7494ZM28.9496 41.8045H42.8916C43.7785 41.8045 44.5004 42.5263 44.5004 43.4132C44.5004 44.3001 43.7786 45.0219 42.8917 45.0219H28.9496C28.0626 45.0219 27.3409 44.3001 27.3409 43.4132C27.3409 42.5263 28.0626 41.8045 28.9496 41.8045ZM28.9496 43.9494H42.8916C43.1877 43.9494 43.4279 43.7087 43.4279 43.4132C43.4279 43.1177 43.1877 42.877 42.8917 42.877H28.9496C28.6536 42.877 28.4134 43.1177 28.4134 43.4132C28.4134 43.7087 28.6536 43.9494 28.9496 43.9494Z" fill="#04DA21"/>
<path d="M41.8194 41.8055C40.0402 41.8055 39.1382 40.5426 39.1382 38.0518C39.1382 37.7559 38.898 37.5156 38.602 37.5156H33.2397C32.9437 37.5156 32.7035 37.7559 32.7035 38.0518C32.7035 40.5426 31.8015 41.8055 30.0223 41.8055C29.7263 41.8055 29.4861 42.0457 29.4861 42.3417C29.4861 42.6376 29.7263 42.8779 30.0223 42.8779H35.9209H41.8194C42.1154 42.8779 42.3556 42.6376 42.3556 42.3417C42.3556 42.0457 42.1154 41.8055 41.8194 41.8055ZM32.6342 41.8055C33.2944 41.0741 33.6831 39.9849 33.7614 38.5881H38.0808C38.1585 39.9849 38.5473 41.0741 39.2079 41.8055H35.9211H32.6342Z" fill="#04DA21"/>
<path fill-rule="evenodd" clip-rule="evenodd" d="M39.9744 40.7463C40.3787 41.3123 40.9833 41.6053 41.8195 41.6053C42.2259 41.6053 42.5557 41.935 42.5557 42.3415C42.5557 42.7479 42.2259 43.0777 41.8195 43.0777H30.0223C29.6159 43.0777 29.2861 42.7479 29.2861 42.3415C29.2861 41.935 29.6159 41.6053 30.0223 41.6053C30.8585 41.6053 31.4631 41.3123 31.8674 40.7463C32.2803 40.1682 32.5035 39.2787 32.5035 38.0516C32.5035 37.6452 32.8333 37.3154 33.2398 37.3154H38.6021C39.0085 37.3154 39.3383 37.6452 39.3383 38.0516C39.3383 39.2787 39.5615 40.1682 39.9744 40.7463ZM32.6343 41.8053H39.208C39.1502 41.7413 39.0945 41.6746 39.041 41.6053C38.4817 40.8811 38.1518 39.8626 38.0808 38.5879H33.7614C33.69 39.8626 33.36 40.8811 32.8012 41.6053C32.7476 41.6746 32.692 41.7413 32.6343 41.8053ZM33.0499 41.6053H38.7922C38.2843 40.8892 37.982 39.9361 37.8936 38.7879H33.9486C33.8598 39.9361 33.5574 40.8892 33.0499 41.6053ZM39.1383 38.0516C39.1383 40.5424 40.0402 41.8053 41.8195 41.8053C42.1155 41.8053 42.3557 42.0455 42.3557 42.3415C42.3557 42.6374 42.1155 42.8777 41.8195 42.8777H30.0223C29.7264 42.8777 29.4861 42.6374 29.4861 42.3415C29.4861 42.0455 29.7264 41.8053 30.0223 41.8053C31.8016 41.8053 32.7035 40.5424 32.7035 38.0516C32.7035 37.7557 32.9438 37.5154 33.2398 37.5154H38.6021C38.898 37.5154 39.1383 37.7557 39.1383 38.0516Z" fill="#04DA21"/>
<path d="M15.4783 29.4116H16.4419V30.3753H15.4783V29.4116Z" fill="#04DA21"/>
<rect x="11.9055" y="28.1968" width="15.0384" height="23.1842" rx="3" fill="white"/>
<path d="M17.4058 30.5199C17.4058 30.2538 17.6215 30.0381 17.8876 30.0381H20.7786C21.0447 30.0381 21.2604 30.2538 21.2604 30.5199C21.2604 30.786 21.0447 31.0017 20.7786 31.0017H17.8876C17.6215 31.0017 17.4058 30.786 17.4058 30.5199Z" fill="#04DA21"/>
<path d="M14.1177 28.6932H24.3968C25.3986 28.6932 26.2107 29.5053 26.2107 30.5071V48.6466C26.2107 49.6484 25.3986 50.4605 24.3968 50.4605H14.5712L15.0247 51.6698H24.3968C26.0665 51.6698 27.42 50.3163 27.42 48.6466V30.5071C27.42 28.8374 26.0665 27.4839 24.3968 27.4839H14.1177C12.448 27.4839 11.0945 28.8374 11.0945 30.5071V48.6466H12.3038V30.5071C12.3038 29.5053 13.1159 28.6932 14.1177 28.6932Z" fill="#04DA21"/>
<path d="M15.3492 50.612L17.0057 47.7431L17.1975 47.363C17.3889 46.9122 17.401 46.4054 17.2314 45.946C17.0618 45.4866 16.7233 45.1092 16.2849 44.8909C15.8466 44.6726 15.3414 44.6298 14.8726 44.7712C14.4037 44.9127 14.0065 45.2277 13.7621 45.652L12.1238 48.4909C12.112 48.3954 12.1058 48.2991 12.1055 48.2028V40.1562H11.1419C10.8352 40.2989 10.5884 40.5446 10.4442 40.8506L8.25716 45.5951C7.9334 46.2911 7.76676 47.0498 7.76907 47.8173V56.3939H8.73273V47.8173C8.73058 47.1897 8.86679 46.5693 9.13168 46.0004L11.1419 41.6388V48.2028C11.1415 48.7783 11.289 49.3442 11.5702 49.8463C11.6065 49.9276 11.6646 49.9972 11.738 50.0474C11.8114 50.0977 11.8973 50.1267 11.9861 50.1311C12.075 50.1355 12.1633 50.1153 12.2414 50.0726C12.3195 50.0299 12.3842 49.9664 12.4284 49.8892L14.5966 46.1338C14.7253 45.9143 14.9356 45.7546 15.1816 45.6895C15.4276 45.6245 15.6894 45.6594 15.9098 45.7866C16.1301 45.9139 16.2912 46.1231 16.3579 46.3687C16.4246 46.6143 16.3914 46.8763 16.2657 47.0975L14.0974 50.8529C14.0543 50.9274 14.032 51.0121 14.0328 51.0982C14.0335 51.1843 14.0574 51.2686 14.1018 51.3424L15.1338 53.0577C16.1488 54.7496 13.5213 58.9271 12.1055 59.5267C11.3657 59.84 12.2845 60.1533 13.1586 59.84C14.9711 59.1904 17.1174 54.4893 15.9602 52.5614L15.367 51.5756L15.3492 50.612Z" fill="#04DA21"/>
<path d="M23.8796 43.8531C23.968 43.7584 24.0114 43.6308 23.9974 43.502L23.2357 36.4994C23.2103 36.2662 23.0087 36.0965 22.7771 36.0965H21.5083V35.944C21.5083 34.8669 20.6023 34 19.5 34C18.3977 34 17.4917 34.8669 17.4917 35.944V36.0965H16.2229C15.9913 36.0965 15.7897 36.2662 15.7643 36.4994L15.0026 43.502C14.9886 43.6309 15.0323 43.7585 15.1203 43.853C15.2083 43.9473 15.3324 44 15.4612 44H23.5388C23.6675 44 23.7916 43.9474 23.8796 43.8531L23.7604 43.7423H15.2395C15.183 43.6816 15.1557 43.6006 15.1645 43.5195L15.9262 36.517C15.9422 36.3704 16.0702 36.2591 16.2229 36.2591H17.6546V35.944C17.6546 34.9617 18.4825 34.1625 19.5 34.1625C20.5175 34.1625 21.3454 34.9617 21.3454 35.944V36.2591H22.7771C22.9298 36.2591 23.0578 36.3704 23.0738 36.517L23.8355 43.5195L23.7604 43.7423L23.8796 43.8531Z" fill="#04DA21"/>
<path fill-rule="evenodd" clip-rule="evenodd" d="M18.2512 35.944C18.2512 35.2793 18.8114 34.7384 19.5 34.7384C20.1886 34.7384 20.7488 35.2793 20.7488 35.944V36.2591H18.2512V35.944ZM19.5 34.901C18.8962 34.901 18.414 35.3741 18.414 35.944V36.0965H20.586V35.944C20.586 35.3741 20.1038 34.901 19.5 34.901Z" fill="#04DA21"/>
<path fill-rule="evenodd" clip-rule="evenodd" d="M21.0471 37.7575C21.2118 37.7575 21.3454 37.6285 21.3454 37.4695V36.835H22.5085L23.2076 43.2616H15.7924L16.4915 36.835H17.6546V37.4695C17.6546 37.6285 17.7882 37.7575 17.9529 37.7575C18.1176 37.7575 18.2512 37.6285 18.2512 37.4695V36.835H20.7488V37.4695C20.7488 37.6285 20.8824 37.7575 21.0471 37.7575ZM15.9739 43.099H23.0261L22.3623 36.9975H21.5083V37.4695C21.5083 37.7233 21.2966 37.92 21.0471 37.92C20.7976 37.92 20.586 37.7233 20.586 37.4695V36.9975H18.414V37.4695C18.414 37.7233 18.2024 37.92 17.9529 37.92C17.7034 37.92 17.4917 37.7233 17.4917 37.4695V36.9975H16.6376L15.9739 43.099Z" fill="#04DA21"/>
<path fill-rule="evenodd" clip-rule="evenodd" d="M23.8355 43.5195L23.0738 36.517C23.0578 36.3704 22.9298 36.2591 22.7771 36.2591H21.3454V35.944C21.3454 34.9617 20.5175 34.1625 19.5 34.1625C18.4825 34.1625 17.6546 34.9617 17.6546 35.944V36.2591H16.2229C16.0702 36.2591 15.9422 36.3704 15.9262 36.517L15.1645 43.5195L15.2395 43.7423H23.7604L23.8355 43.5195ZM21.3454 37.4695C21.3454 37.6285 21.2118 37.7575 21.0471 37.7575C20.8824 37.7575 20.7488 37.6285 20.7488 37.4695V36.835H18.2512V37.4695C18.2512 37.6285 18.1176 37.7575 17.9529 37.7575C17.7882 37.7575 17.6546 37.6285 17.6546 37.4695V36.835H16.4915L15.7924 43.2616H23.2076L22.5085 36.835H21.3454V37.4695ZM19.5 34.7384C18.8114 34.7384 18.2512 35.2793 18.2512 35.944V36.2591H20.7488V35.944C20.7488 35.2793 20.1886 34.7384 19.5 34.7384Z" fill="#04DA21"/>
</g>
</svg>
