<svg width="63" height="63" viewBox="0 0 63 63" fill="none" xmlns="http://www.w3.org/2000/svg">
<path d="M62.9114 31.6201C62.9114 48.9227 48.8849 62.9492 31.5823 62.9492C14.2797 62.9492 0.253174 48.9227 0.253174 31.6201C0.253174 14.3175 14.2797 0.291016 31.5823 0.291016C48.8849 0.291016 62.9114 14.3175 62.9114 31.6201Z" fill="white"/>
<mask id="mask0" mask-type="alpha" maskUnits="userSpaceOnUse" x="0" y="0" width="63" height="63">
<path d="M62.9114 31.6201C62.9114 48.9227 48.8849 62.9492 31.5823 62.9492C14.2797 62.9492 0.253174 48.9227 0.253174 31.6201C0.253174 14.3175 14.2797 0.291016 31.5823 0.291016C48.8849 0.291016 62.9114 14.3175 62.9114 31.6201Z" fill="url(#paint0_linear)"/>
</mask>
<g mask="url(#mask0)">
<path d="M55.6336 -2.60059V8.98175H54.978C49.4709 8.98175 44.94 10.3075 41.3852 12.9591C37.8595 15.5815 35.6887 19.2383 34.8728 23.9295C38.1946 20.6661 42.3904 19.0343 47.4604 19.0343C52.9675 19.0343 57.3527 21.0449 60.6162 25.0659C63.8796 29.0869 65.5114 34.3609 65.5114 40.8878C65.5114 44.938 64.5498 48.653 62.6267 52.0331C60.7327 55.4131 58.0666 58.0646 54.6283 59.9877C51.2192 61.8817 47.4313 62.8287 43.2646 62.8287C38.7482 62.8287 34.7126 61.8088 31.1577 59.7692C27.6029 57.7004 24.8348 54.7575 22.8534 50.9404C20.872 47.1233 19.8522 42.7235 19.7939 37.7409V31.8405C19.7939 25.2844 21.1926 19.3986 23.9898 14.1829C26.8162 8.93804 30.8372 4.82959 36.0529 1.85752C41.2686 -1.11455 47.0525 -2.60059 53.4046 -2.60059H55.6336ZM42.3467 30.3107C40.3945 30.3107 38.7627 30.7624 37.4515 31.6656C36.1403 32.5689 35.1642 33.6762 34.5232 34.9874V39.4018C34.5232 47.4438 37.3058 51.4649 42.8712 51.4649C45.1148 51.4649 46.9796 50.4596 48.4657 48.4491C49.9809 46.4386 50.7384 43.9181 50.7384 40.8878C50.7384 37.77 49.9663 35.235 48.422 33.2828C46.9068 31.3014 44.8817 30.3107 42.3467 30.3107Z" fill="white"/>
</g>
<path fill-rule="evenodd" clip-rule="evenodd" d="M41.4022 14.4308C41.7432 14.626 41.8601 15.0582 41.6632 15.3962L40.6027 17.2169C40.4059 17.5549 39.9698 17.6707 39.6288 17.4755C39.2878 17.2804 39.1709 16.8482 39.3678 16.5101L40.4283 14.6895C40.6252 14.3515 41.0612 14.2357 41.4022 14.4308Z" fill="#04DA21"/>
<path fill-rule="evenodd" clip-rule="evenodd" d="M21.6445 14.4308C21.3035 14.626 21.1867 15.0582 21.3836 15.3962L22.444 17.2169C22.6409 17.5549 23.077 17.6707 23.418 17.4755C23.759 17.2804 23.8758 16.8482 23.6789 16.5101L22.6185 14.6895C22.4216 14.3515 21.9855 14.2357 21.6445 14.4308Z" fill="#04DA21"/>
<path fill-rule="evenodd" clip-rule="evenodd" d="M31.5452 10.2368C31.939 10.2368 32.2582 10.5532 32.2582 10.9435V15.3584C32.2582 15.7487 31.939 16.0651 31.5452 16.0651C31.1515 16.0651 30.8323 15.7487 30.8323 15.3584V10.9435C30.8323 10.5532 31.1515 10.2368 31.5452 10.2368Z" fill="#04DA21"/>
<path fill-rule="evenodd" clip-rule="evenodd" d="M11.7406 18.2224C12.019 17.9464 12.4704 17.9464 12.7489 18.2224L15.8983 21.3442C16.1767 21.6202 16.1767 22.0676 15.8983 22.3436C15.6199 22.6196 15.1684 22.6196 14.89 22.3436L11.7406 19.2218C11.4621 18.9458 11.4621 18.4984 11.7406 18.2224Z" fill="#04DA21"/>
<path fill-rule="evenodd" clip-rule="evenodd" d="M51.1059 18.2224C50.8275 17.9464 50.3761 17.9464 50.0976 18.2224L46.9482 21.3442C46.6698 21.6202 46.6698 22.0676 46.9482 22.3436C47.2266 22.6196 47.6781 22.6196 47.9565 22.3436L51.1059 19.2218C51.3844 18.9458 51.3844 18.4984 51.1059 18.2224Z" fill="#04DA21"/>
<path fill-rule="evenodd" clip-rule="evenodd" d="M21.2749 42.6913C21.2749 42.2989 21.593 41.9809 21.9853 41.9809H26.0006C26.3929 41.9809 26.711 42.2989 26.711 42.6913C26.711 43.0836 26.3929 43.4017 26.0006 43.4017H21.9853C21.593 43.4017 21.2749 43.0836 21.2749 42.6913ZM21.2749 46.0726C21.2749 45.6802 21.593 45.3622 21.9853 45.3622H27.6912C28.0836 45.3622 28.4016 45.6802 28.4016 46.0726C28.4016 46.4649 28.0836 46.783 27.6912 46.783H21.9853C21.593 46.783 21.2749 46.4649 21.2749 46.0726Z" fill="#04DA21"/>
<path fill-rule="evenodd" clip-rule="evenodd" d="M29.1121 26.5717V30.1498L30.5334 29.5181C31.1457 29.246 31.8446 29.246 32.4569 29.5181L33.8783 30.1498V26.5717H29.1121ZM28.6384 25.1509C28.1153 25.1509 27.6912 25.575 27.6912 26.0981V30.8786C27.6912 31.564 28.3968 32.0225 29.0231 31.7441L31.1105 30.8164C31.3554 30.7076 31.635 30.7076 31.8799 30.8164L33.9672 31.7441C34.5936 32.0225 35.2991 31.564 35.2991 30.8786V26.0981C35.2991 25.575 34.875 25.1509 34.3519 25.1509H28.6384Z" fill="#04DA21"/>
<path fill-rule="evenodd" clip-rule="evenodd" d="M17.2151 26.1493C17.2151 25.2077 17.9784 24.4443 18.9201 24.4443H43.5476C44.4893 24.4443 45.2526 25.2077 45.2526 26.1493V50.7769C45.2526 51.7185 44.4893 52.4819 43.5476 52.4819H18.9201C17.9784 52.4819 17.2151 51.7185 17.2151 50.7769V26.1493ZM18.9201 25.9599C18.8154 25.9599 18.7306 26.0447 18.7306 26.1493V50.7769C18.7306 50.8815 18.8154 50.9663 18.9201 50.9663H43.5476C43.6523 50.9663 43.7371 50.8815 43.7371 50.7769V26.1493C43.7371 26.0447 43.6523 25.9599 43.5476 25.9599H18.9201Z" fill="#04DA21"/>
<defs>
<linearGradient id="paint0_linear" x1="29.8567" y1="71.0063" x2="78.021" y2="11.2493" gradientUnits="userSpaceOnUse">
<stop stop-color="#EEE8FF"/>
<stop offset="1" stop-color="#FFF5FF"/>
</linearGradient>
</defs>
</svg>
