<svg width="63" height="63" viewBox="0 0 63 63" fill="none" xmlns="http://www.w3.org/2000/svg">
<path d="M62.9114 31.6455C62.9114 48.9481 48.8849 62.9746 31.5823 62.9746C14.2797 62.9746 0.253174 48.9481 0.253174 31.6455C0.253174 14.3429 14.2797 0.316406 31.5823 0.316406C48.8849 0.316406 62.9114 14.3429 62.9114 31.6455Z" fill="white"/>
<mask id="mask0" mask-type="alpha" maskUnits="userSpaceOnUse" x="0" y="0" width="63" height="63">
<path d="M62.9114 31.6455C62.9114 48.9481 48.8849 62.9746 31.5823 62.9746C14.2797 62.9746 0.253174 48.9481 0.253174 31.6455C0.253174 14.3429 14.2797 0.316406 31.5823 0.316406C48.8849 0.316406 62.9114 14.3429 62.9114 31.6455Z" fill="url(#paint0_linear)"/>
</mask>
<g mask="url(#mask0)">
<path d="M33.5181 27.9771H40.4675C45.9746 27.9771 48.7281 25.2819 48.7281 19.8913C48.7281 17.7934 48.0725 16.0888 46.7613 14.7776C45.4501 13.4373 43.5998 12.7671 41.2105 12.7671C39.2583 12.7671 37.5537 13.3353 36.0968 14.4717C34.6691 15.6081 33.9552 17.0213 33.9552 18.7113H19.226C19.226 15.3604 20.1584 12.3738 22.0232 9.75134C23.888 7.12893 26.4667 5.08927 29.7593 3.63237C33.0811 2.14634 36.7233 1.40332 40.6861 1.40332C47.7666 1.40332 53.3319 3.02048 57.3821 6.25479C61.4323 9.4891 63.4574 13.9326 63.4574 19.5854C63.4574 22.3244 62.6124 24.9176 60.9224 27.3652C59.2615 29.7837 56.8285 31.7505 53.6233 33.2657C57.0033 34.4895 59.6549 36.3543 61.578 38.8601C63.5011 41.3369 64.4626 44.4109 64.4626 48.0823C64.4626 53.7642 62.2773 58.3097 57.9066 61.7189C53.5359 65.128 47.7957 66.8326 40.6861 66.8326C36.5193 66.8326 32.644 66.0458 29.06 64.4724C25.5052 62.8698 22.8099 60.6699 20.9742 57.8727C19.1385 55.0463 18.2207 51.8411 18.2207 48.2571H33.0373C33.0373 50.2094 33.8241 51.8994 35.3975 53.3271C36.971 54.7549 38.9086 55.4688 41.2105 55.4688C43.8038 55.4688 45.8726 54.7549 47.4169 53.3271C48.9612 51.8702 49.7334 50.02 49.7334 47.7764C49.7334 44.5712 48.9321 42.2984 47.3295 40.9581C45.7269 39.6177 43.5124 38.9476 40.6861 38.9476H33.5181V27.9771Z" fill="white"/>
</g>
<path fill-rule="evenodd" clip-rule="evenodd" d="M31.7692 19.4522C29.0466 19.4522 26.5915 21.8382 26.6043 25.0059L26.6044 25.0091C26.6043 28.2457 29.0486 30.6757 31.7692 30.6757C34.4873 30.6757 36.9328 28.2485 36.9328 24.9788C36.9328 21.7813 34.4962 19.4522 31.7692 19.4522ZM25.013 25.0107C24.9977 21.0213 28.108 17.8608 31.7692 17.8608C35.4266 17.8608 38.5241 20.9549 38.5241 24.9788C38.5241 29.0228 35.4672 32.267 31.7692 32.267C28.0744 32.267 25.0138 29.0265 25.013 25.0107ZM22.0955 36.549C24.4104 34.6582 27.7258 33.2936 31.7692 33.2936C35.8052 33.2936 39.1166 34.6584 41.4294 36.5493C43.717 38.4195 45.0986 40.8725 45.0986 43.077C45.0986 43.9276 44.803 44.7084 44.0172 45.2224C43.3087 45.6858 42.3085 45.8555 41.0791 45.8555H22.4436C21.2142 45.8555 20.2139 45.6858 19.5055 45.2224C18.7197 44.7084 18.4241 43.9276 18.4241 43.077C18.4241 40.8724 19.8058 38.4194 22.0955 36.549ZM23.1022 37.7815C21.0476 39.4597 20.0154 41.5006 20.0154 43.077C20.0154 43.528 20.1442 43.7387 20.3766 43.8907C20.6863 44.0933 21.298 44.2642 22.4436 44.2642H41.0791C42.2246 44.2642 42.8363 44.0933 43.146 43.8907C43.3784 43.7387 43.5073 43.528 43.5073 43.077C43.5073 41.5005 42.4749 39.4596 40.4221 37.7812C38.3945 36.1235 35.4391 34.8849 31.7692 34.8849C28.091 34.8849 25.1317 36.1237 23.1022 37.7815Z" fill="#04DA21"/>
<defs>
<linearGradient id="paint0_linear" x1="29.8567" y1="71.0317" x2="78.021" y2="11.2747" gradientUnits="userSpaceOnUse">
<stop stop-color="#EEE8FF"/>
<stop offset="1" stop-color="#FFF5FF"/>
</linearGradient>
</defs>
</svg>
