<svg width="63" height="64" viewBox="0 0 63 64" fill="none" xmlns="http://www.w3.org/2000/svg">
<path d="M62.9114 32.3037C62.9114 49.6063 48.8849 63.6328 31.5823 63.6328C14.2797 63.6328 0.253174 49.6063 0.253174 32.3037C0.253174 15.0011 14.2797 0.974609 31.5823 0.974609C48.8849 0.974609 62.9114 15.0011 62.9114 32.3037Z" fill="white"/>
<mask id="mask0" mask-type="alpha" maskUnits="userSpaceOnUse" x="0" y="0" width="63" height="64">
<path d="M62.9114 32.3037C62.9114 49.6063 48.8849 63.6328 31.5823 63.6328C14.2797 63.6328 0.253174 49.6063 0.253174 32.3037C0.253174 15.0011 14.2797 0.974609 31.5823 0.974609C48.8849 0.974609 62.9114 15.0011 62.9114 32.3037Z" fill="url(#paint0_linear)"/>
</mask>
<g mask="url(#mask0)">
<path d="M58.9555 37.769H65.4241V49.1328H58.9555V62.6382H44.2262V49.1328H19.6193L18.7451 40.1292L44.2262 -0.867903V-0.999023H58.9555V37.769ZM32.775 37.769H44.2262V18.1883L43.3084 19.6743L32.775 37.769Z" fill="white"/>
</g>
<path fill-rule="evenodd" clip-rule="evenodd" d="M17.3599 19.8713C17.3599 19.4319 17.7161 19.0757 18.1555 19.0757H21.2298C22.0146 19.0757 22.708 19.5869 22.94 20.3366L23.8592 23.3063H48.4919C49.7208 23.3063 50.5844 24.5163 50.1849 25.6785L46.2149 37.2275C45.9664 37.9504 45.2863 38.4358 44.5219 38.4358H28.1962C27.4114 38.4358 26.7181 37.9246 26.4861 37.1749L21.4199 20.8071C21.3941 20.7238 21.317 20.667 21.2298 20.667H18.1555C17.7161 20.667 17.3599 20.3108 17.3599 19.8713ZM24.3518 24.8977L28.0062 36.7043C28.032 36.7876 28.109 36.8444 28.1962 36.8444H44.5219C44.6068 36.8444 44.6824 36.7905 44.71 36.7102L48.68 25.1612C48.7244 25.0321 48.6284 24.8977 48.4919 24.8977H24.3518Z" fill="#04DA21"/>
<path fill-rule="evenodd" clip-rule="evenodd" d="M30.4245 46.6254C31.8822 46.6254 33.0638 45.4437 33.0638 43.986C33.0638 42.5284 31.8822 41.3467 30.4245 41.3467C28.9668 41.3467 27.7852 42.5284 27.7852 43.986C27.7852 45.4437 28.9668 46.6254 30.4245 46.6254ZM30.4245 48.2167C32.761 48.2167 34.6552 46.3226 34.6552 43.986C34.6552 41.6495 32.761 39.7554 30.4245 39.7554C28.088 39.7554 26.1938 41.6495 26.1938 43.986C26.1938 46.3226 28.088 48.2167 30.4245 48.2167Z" fill="#04DA21"/>
<path fill-rule="evenodd" clip-rule="evenodd" d="M43.1164 46.6254C44.5741 46.6254 45.7557 45.4437 45.7557 43.986C45.7557 42.5284 44.5741 41.3467 43.1164 41.3467C41.6587 41.3467 40.4771 42.5284 40.4771 43.986C40.4771 45.4437 41.6587 46.6254 43.1164 46.6254ZM43.1164 48.2167C45.4529 48.2167 47.3471 46.3226 47.3471 43.986C47.3471 41.6495 45.4529 39.7554 43.1164 39.7554C40.7799 39.7554 38.8857 41.6495 38.8857 43.986C38.8857 46.3226 40.7799 48.2167 43.1164 48.2167Z" fill="#04DA21"/>
<path fill-rule="evenodd" clip-rule="evenodd" d="M9.40332 33.2981C9.40332 32.8587 9.75955 32.5024 10.199 32.5024H22.6312C23.0706 32.5024 23.4268 32.8587 23.4268 33.2981C23.4268 33.7375 23.0706 34.0938 22.6312 34.0938H10.199C9.75955 34.0938 9.40332 33.7375 9.40332 33.2981Z" fill="#04DA21"/>
<path fill-rule="evenodd" clip-rule="evenodd" d="M13.8789 29.8171C13.8789 29.3777 14.2351 29.0215 14.6746 29.0215H21.1393C21.5787 29.0215 21.935 29.3777 21.935 29.8171C21.935 30.2566 21.5787 30.6128 21.1393 30.6128H14.6746C14.2351 30.6128 13.8789 30.2566 13.8789 29.8171Z" fill="#04DA21"/>
<defs>
<linearGradient id="paint0_linear" x1="29.8567" y1="71.6899" x2="78.021" y2="11.9329" gradientUnits="userSpaceOnUse">
<stop stop-color="#EEE8FF"/>
<stop offset="1" stop-color="#FFF5FF"/>
</linearGradient>
</defs>
</svg>
