<svg width="131" height="119" viewBox="0 0 131 119" fill="none" xmlns="http://www.w3.org/2000/svg">
<path d="M93.1328 12.2812C82.9885 12.2812 72.9506 16.0966 65.5 22.6548C58.0494 16.0966 48.0115 12.2812 37.8672 12.2812C16.637 12.2812 0 27.9521 0 47.9542C0 77.3555 56.8376 114.003 63.3139 118.08C63.9853 118.514 64.7386 118.719 65.5 118.719C66.2451 118.719 66.9901 118.522 67.6533 118.113C91.176 103.588 131 72.4839 131 47.9542C131 27.9521 114.363 12.2812 93.1328 12.2812Z" fill="#F44336"/>
<path d="M114.625 20.4688C105.594 20.4688 98.25 13.1246 98.25 4.09375C98.25 1.834 96.416 0 94.1562 0C91.8965 0 90.0625 1.834 90.0625 4.09375C90.0625 13.1246 82.7183 20.4688 73.6875 20.4688C71.4278 20.4688 69.5938 22.3027 69.5938 24.5625C69.5938 26.8223 71.4278 28.6562 73.6875 28.6562C82.7183 28.6562 90.0625 36.0004 90.0625 45.0312C90.0625 47.291 91.8965 49.125 94.1562 49.125C96.416 49.125 98.25 47.291 98.25 45.0312C98.25 36.0004 105.594 28.6562 114.625 28.6562C116.885 28.6562 118.719 26.8223 118.719 24.5625C118.719 22.3027 116.885 20.4688 114.625 20.4688Z" fill="#FFCA28"/>
<path d="M57.3125 81.875C48.2817 81.875 40.9375 74.5308 40.9375 65.5C40.9375 63.2403 39.1035 61.4062 36.8438 61.4062C34.584 61.4062 32.75 63.2403 32.75 65.5C32.75 74.5308 25.4058 81.875 16.375 81.875C14.1153 81.875 12.2812 83.709 12.2812 85.9688C12.2812 88.2285 14.1153 90.0625 16.375 90.0625C25.4058 90.0625 32.75 97.4067 32.75 106.438C32.75 108.697 34.584 110.531 36.8438 110.531C39.1035 110.531 40.9375 108.697 40.9375 106.438C40.9375 97.4067 48.2817 90.0625 57.3125 90.0625C59.5723 90.0625 61.4062 88.2285 61.4062 85.9688C61.4062 83.709 59.5723 81.875 57.3125 81.875Z" fill="#FFCA28"/>
</svg>
